<?xml version="1.0" encoding="UTF-8" standalone="no"?>
<!-- Created with Inkscape (http://www.inkscape.org/) -->

<svg
   xmlns:dc="http://purl.org/dc/elements/1.1/"
   xmlns:cc="http://creativecommons.org/ns#"
   xmlns:rdf="http://www.w3.org/1999/02/22-rdf-syntax-ns#"
   xmlns:svg="http://www.w3.org/2000/svg"
   xmlns="http://www.w3.org/2000/svg"
   version="1.1"
   width="48"
   height="48"
   id="svg2985">
  <defs
     id="defs2987">
    <radialGradient
       cx="500.48001"
       cy="677.64001"
       r="44.077"
       id="radialGradient4002"
       gradientUnits="userSpaceOnUse"
       gradientTransform="matrix(-1.0011624,2.4091976,-1.6647862,-0.69181597,2152.4123,-78.463199)">
      <stop
         id="stop3998"
         style="stop-color:#401f00;stop-opacity:1"
         offset="0" />
      <stop
         id="stop4006"
         style="stop-color:#532800;stop-opacity:1"
         offset="0.25" />
      <stop
         id="stop4004"
         style="stop-color:#673200;stop-opacity:1"
         offset="0.5" />
      <stop
         id="stop4000"
         style="stop-color:#8e4601;stop-opacity:1"
         offset="1" />
    </radialGradient>
    <linearGradient
       x1="711.20001"
       y1="693.44"
       x2="717.33002"
       y2="704.04999"
       id="linearGradient3994"
       gradientUnits="userSpaceOnUse">
      <stop
         id="stop3990"
         style="stop-color:#ffc892;stop-opacity:0.7735849"
         offset="0" />
      <stop
         id="stop3992"
         style="stop-color:#ffce9e;stop-opacity:0.14150943"
         offset="1" />
    </linearGradient>
    <radialGradient
       cx="885.48999"
       cy="633.01001"
       r="13.25"
       id="radialGradient3976"
       gradientUnits="userSpaceOnUse"
       gradientTransform="matrix(0.16803377,-0.65210956,1.2782005,0.32936316,-73.907095,1017.5039)">
      <stop
         id="stop3956"
         style="stop-color:#3f3f3f;stop-opacity:0.70754719"
         offset="0" />
      <stop
         id="stop3958"
         style="stop-color:#585858;stop-opacity:0"
         offset="1" />
    </radialGradient>
    <radialGradient
       cx="278.95999"
       cy="613.15997"
       r="8.7143002"
       id="radialGradient3091"
       gradientUnits="userSpaceOnUse"
       gradientTransform="matrix(0.51299123,6.1523897,-2.5312227,0.19574051,1580.8422,-1659.4292)">
      <stop
         id="stop3910"
         style="stop-color:#be9579;stop-opacity:1"
         offset="0" />
      <stop
         id="stop3912"
         style="stop-color:#dea883;stop-opacity:0.49803922"
         offset="0.49406001" />
      <stop
         id="stop3914"
         style="stop-color:#ffbb8e;stop-opacity:0"
         offset="1" />
    </radialGradient>
    <radialGradient
       cx="293.29001"
       cy="617.41998"
       r="7.5760999"
       id="radialGradient3088"
       gradientUnits="userSpaceOnUse"
       gradientTransform="matrix(-1.738517,3.2446874,-2.3236191,-1.1546636,2143.3782,-44.747972)">
      <stop
         id="stop3892"
         style="stop-color:#be9579;stop-opacity:1"
         offset="0" />
      <stop
         id="stop3894"
         style="stop-color:#dea883;stop-opacity:0.49803922"
         offset="0.25455001" />
      <stop
         id="stop3896"
         style="stop-color:#ffbb8e;stop-opacity:0"
         offset="1" />
    </radialGradient>
    <radialGradient
       cx="299.76001"
       cy="606.06"
       r="6.8133998"
       id="radialGradient3072"
       gradientUnits="userSpaceOnUse"
       gradientTransform="matrix(1.0554842,3.0934258,-2.6846088,0.85729062,1524.2038,-1270.8693)">
      <stop
         id="stop3856"
         style="stop-color:#be9579;stop-opacity:1"
         offset="0" />
      <stop
         id="stop3858"
         style="stop-color:#dea883;stop-opacity:0.49803922"
         offset="0.59526998" />
      <stop
         id="stop3860"
         style="stop-color:#ffbb8e;stop-opacity:0"
         offset="1" />
    </radialGradient>
    <radialGradient
       cx="290.98999"
       cy="604.73999"
       r="10.538"
       id="radialGradient3069"
       gradientUnits="userSpaceOnUse"
       gradientTransform="matrix(1.9439846,0,0,0.73933708,-369.16471,-273.00391)">
      <stop
         id="stop3840"
         style="stop-color:#be9579;stop-opacity:1"
         offset="0" />
      <stop
         id="stop3842"
         style="stop-color:#dea883;stop-opacity:0.49803922"
         offset="0.69778001" />
      <stop
         id="stop3834"
         style="stop-color:#ffbb8e;stop-opacity:0"
         offset="1" />
    </radialGradient>
    <radialGradient
       cx="520.71002"
       cy="650.58002"
       r="3.3886001"
       id="radialGradient3822"
       gradientUnits="userSpaceOnUse">
      <stop
         id="stop3818"
         style="stop-color:#000000;stop-opacity:1"
         offset="0" />
      <stop
         id="stop3820"
         style="stop-color:#000000;stop-opacity:0"
         offset="1" />
    </radialGradient>
  </defs>
  <metadata
     id="metadata2990">
    <rdf:RDF>
      <cc:Work
         rdf:about="">
        <dc:format>image/svg+xml</dc:format>
        <dc:type
           rdf:resource="http://purl.org/dc/dcmitype/StillImage" />
        <dc:title></dc:title>
      </cc:Work>
    </rdf:RDF>
  </metadata>
  <g
     id="layer1">
    <g
       transform="matrix(0.06840767,0,0,0.05490697,-1.2146296,-4.2159364)"
       id="layer1-2">
      <g
         transform="matrix(1.0921003,0,0,1.0921003,-314.25797,-79.57769)"
         id="g4008">
        <path
           d="m 561.8,684.67 -3.5355,2.4749 c -2.6389,4.1387 -2.3981,14.757 -12.021,3.182 -2.5927,3.8203 -5.1854,0.81162 -7.7782,-0.70711 -4.6688,6.7869 -8.1444,12.837 -18.385,15.91 -6.8987,5.7838 -12.368,12.425 -23.688,15.556 1.6269,4.5464 2.9332,3.4832 6.364,39.598 3.5355,-1.8211 7.0711,0.73244 10.607,3.5355 3.2919,-0.53668 6.8634,-1.5396 7.4246,2.4749 l 2.4749,7.4246 c 0.37177,6.3066 -7.6854,2.7795 -12.374,3.182 -3.0641,2.8914 -6.1283,0.97717 -9.1924,0.35356 -7.4399,0.6107 -15.168,1.6253 -13.435,-10.607 -4.0998,-1.9463 -3.7133,-9.5005 -4.2426,-15.91 -6.031,-8.1283 -6.9558,-17.108 -7.4246,-26.163 -2.5716,-3.9238 -2.2328,-8.5753 -1.0607,-13.435 -0.0574,-3.7702 -1.367,-8.3752 6.7175,-6.7175 7.24,-21.186 11.865,-43.78 30.759,-58.69 z"
           id="path3168"
           style="fill:url(#radialGradient4002);stroke:#000000;stroke-width:0.91566682px;stroke-linecap:butt;stroke-linejoin:miter" />
        <path
           d="m 384.01,475.55 c 9.6498,60.859 69.555,69.876 74.995,73.813 14.51,3.3379 22.4,-3.7065 31,-4 29.812,-1.4039 55.351,-1.54 99.5,14 23.749,8.8381 48.422,12.133 73.5,13 18.333,-4.0838 36.667,-1.3928 55,1 11.065,4.0347 27.783,3.8293 44,4 l 9.5,-2.5 c 1.8162,-10.39 17.359,-9.2262 33.5,-10.5 17.514,-7.6328 38.023,-16.478 68.5,7 4.1807,2.0657 10.276,1.7379 9.5,10 14.181,15.34 36.58,21.796 43.5,24 -3.233,1.5393 -5.0026,0.61758 -4.4393,5.2019 -6.1597,-1.3455 -3.651,3.6962 -1.0607,8.7981 2.4235,1.9728 5.1052,2.9124 8,3 -1.0591,6.5205 -13.29,24.05 -15.889,21.707 -5.3579,4.8707 -20.28,4.059 -24.399,7.1317 -4.5426,4.8818 -5.2873,3.7495 -11.541,0.50952 -1.496,-2.3685 -4.7601,-6.3628 -8.5858,-5.4697 -4.7413,-1.1956 -8.2316,4.3535 -14.232,-4.818 l -8.35,1.94 -45,6.12 c -3.503,-0.88001 -7.3232,3.7457 -11,5.8839 -14.39,8.836 -27.469,13.74 -41,20 -13.999,27.591 -11.156,59.398 -6,70 l 18.464,50.277 c 8.5106,7.6942 12.607,18.857 14.536,31.723 5.3206,5.3079 10.257,9.8472 16,16 l 8.5858,0.87868 c 4.272,-0.57457 9.3038,-1.512 13.121,10.182 -0.0146,3.4781 -0.87473,5.6879 -3.7071,4.9393 -3.7231,3.3788 -7.2785,4.1838 -11.47,2.4142 -6.9601,2.8008 -12.369,1.4527 -18.061,1.2929 -2.3645,1.0509 -12.335,-9.8779 -10.47,-14.707 -3.5082,-4.0848 -7.8284,-9.9948 -7.8284,-9.9948 -1.1776,-4.9361 -3.2534,-4.483 -5.3536,-3.8839 -10.324,2.2706 -7.6513,-5.9792 -8.818,-11.121 -8.9582,-8.7502 -14.726,-23.882 -22,-36 -13.211,-20.005 -23.807,-36.699 -30.005,-52.47 -4.692,-4.3538 -8.0443,-9.4891 -7.1161,-17.121 -6.5253,-0.4332 -11.165,-0.27701 -24.823,-2.9393 l -61.06,-11.47 c -23.593,-2.5632 -42.476,-19.777 -62,-35 -9.1486,-9.249 -16.678,-10.944 -23,-7 1.8034,11.237 0.43493,24.06 -0.46967,36.652 0.26151,13.554 -1.4628,23.355 -3.5303,34.581 l -0.53033,19.48 c 7.4732,15.939 8.5432,43.066 12.237,61.945 16.457,6.4121 9.9348,0.23075 17.939,5.8683 1.1243,2.6667 2.1719,7.8082 2.3536,10.475 -1.5299,2.1478 -6.7447,5.5105 -13.768,1.6568 -5.8058,2.2738 -6.6783,-0.55677 -10.293,-0.18198 -5.5342,-0.38716 -14.356,-0.15278 -11.707,-6.7071 l -1.23,-16.77 c -14.18,-16.16 -11.1,-33.01 -11.7,-53.05 0.29,-9.62 -0.47,-23.28 -1.3,-32.95 -8.7818,-13.876 -19.832,-24.424 -22,-48 -34.707,-49.45 -21.691,-82.672 -20,-85 0.84987,-4.8063 3.5746,-10.854 1,-16.945 -58.801,-24.444 -64.229,-36.201 -77.47,-56.47 -6.4919,-12.815 -5.5169,-28.527 -3.7626,-40.586 2.0836,-22.663 11.306,-6.4116 10.237,0.18718 z"
           id="path3166"
           style="fill:#944900;stroke:#000000;stroke-width:0.91566682px;stroke-linecap:butt;stroke-linejoin:miter" />
        <path
           d="m 656.55,657.8 c -8.7874,-3.2051 -16.866,-8.0486 -40.305,22.627 -7.098,8.3809 -5.7099,12.519 -3.5355,16.263 10.205,23.586 31.864,40.012 48.79,59.397 l 9.1924,10.96 -1.0607,6.7175 -3.8891,0.35355 c -3.215,-0.93333 -7.2132,-5.2724 -11.314,3.5355 l -4.2426,2.4749 c -3.831,-4.0731 -6.6199,1.2323 -9.5459,5.3033 -3.0783,-2.4278 -4.8527,1.664 -7.0711,3.5355 4.0987,3.8792 3.3336,11.406 14.142,10.253 5.8963,1.2116 8.0778,7.5101 20.86,-0.7071 5.3033,-3.497 10.607,-6.7736 15.91,-14.849 5.1406,-6.4334 15.462,-8.8002 13.435,-20.86 0.60324,-6.2591 -11.547,-14.112 -17.678,-21.213 -3.34,-10.025 -9.996,-18.723 -18.031,-26.87 l 2.1213,-6.0104 c 9.7167,-6.9268 19.926,-13.607 38.891,-15.91 6.2706,-5.323 14.284,-3.6736 18.031,-19.092"
           id="path3170"
           style="fill:#944900;stroke:#000000;stroke-width:0.91566682px;stroke-linecap:butt;stroke-linejoin:miter" />
        <path
           d="m 822.37,569.05 -1.7678,3.182 c -19.585,10.46 -19.556,23.1 -22.981,35.355 0.0699,11.54 -2.2259,22.606 2.1213,35.002 1.5491,7.0711 3.99,14.142 7.4246,21.213 16.087,19.665 26.926,18.862 33.588,1.7678 -0.7428,-7.5306 -0.99643,-15.224 1.0607,-23.688 5.2741,-19.096 2.7507,-34.851 1.7678,-51.265 l 1.7678,-7.7782"
           id="path3940"
           style="fill:#ab6828;stroke:#000000;stroke-width:0.91566682px;stroke-linecap:butt;stroke-linejoin:miter" />
        <path
           d="m 926.31,605.12 c 10.411,1.9958 11.06,6.808 8.4853,9.1924 -0.99044,2.9156 -2.561,5.6207 -5.6998,7.7567 -10.577,-1.2817 -8.6216,-3.8187 -9.753,-6.6746 -2.897,-4.9035 0.52936,-4.4883 2.7249,-4.6176 -1.7054,-3.7054 2.3377,-4.0575 4.2426,-5.6569 z"
           id="path3942"
           style="fill:#592e04;stroke:#000000;stroke-width:0.91566682px;stroke-linecap:butt;stroke-linejoin:miter" />
        <path
           d="m 882.75,581.24 c -0.68863,5.3746 -11.7,9.42 -13.5,14"
           id="path3944"
           style="fill:none;stroke:#000000;stroke-width:0.91566682px;stroke-linecap:butt;stroke-linejoin:miter" />
        <path
           d="m 872.88,591.99 c 2.0033,5.3519 4.8865,4.5445 7.875,3 2.4479,-3.8165 0.0828,-5.7818 -1.625,-8 z"
           id="path3946"
           style="fill:none;stroke:#000000;stroke-width:0.91566682px;stroke-linecap:butt;stroke-linejoin:miter" />
        <path
           d="m 881.25,593.86 a 2.3125,2.375 0 1 1 -4.625,0 2.3125,2.375 0 1 1 4.625,0 z"
           transform="translate(0.375,-1.625)"
           id="path3948"
           style="fill:#000000" />
        <path
           d="m 873,646.99 c 12.032,-10.648 17.722,-1.0962 25.5,1.625 -3.2083,0.42025 -6.4167,1.3375 -9.625,2.375 -2.4666,3.4509 -5.531,5.5431 -11.625,0.75 -0.93925,-1.3446 -2.6812,-3.0906 -4.25,-4.75 z"
           id="path3952"
           style="opacity:0.8532935;fill:url(#radialGradient3976)" />
        <g
           id="g3982"
           style="stroke:#000000;stroke-width:0.91566682px;stroke-linecap:butt;stroke-linejoin:miter">
          <path
             d="m 764,576.86 c -4.0986,57.223 8.7772,68.205 17.5,90.5 -2.5167,4.6762 -1.1074,7.109 -0.5,10 10.268,7.5113 13.27,-0.78413 12.005,-6.3839 l -4.5,-6.03 c -1.0779,-2.3915 -0.80556,-5.2331 -0.5,-8.0858 l -4.6161,3.091 c -13.51,-20.36 -11.79,-54.41 -12.88,-84.09 -1.8387,-0.97854 -4.2106,0.17591 -6.5,1 z"
             id="path3978"
             style="fill:#5a0f00" />
          <path
             d="m 783.3,660.09 c 2.6324,6.2741 3.8114,5.3531 5.1265,5.4801"
             id="path3980"
             style="fill:none" />
        </g>
        <path
           d="m 688.37,709.95 c 18.56,-5.7113 34.361,-13.179 42.603,-25.456 2.2532,-2.1512 3.8898,-4.6387 11.137,-4.0659 -13.643,8.3589 -13.828,15.926 -20.329,23.865 -1.514,10.634 -22.196,3.8419 -33.411,5.6568 z"
           id="path3986"
           style="fill:url(#linearGradient3994)" />
      </g>
      <g
         id="g3103">
        <path
           d="m 81.507,877.91 c 0.49954,3.2349 -3.5007,6.4698 1.7604,9.7048 19.256,7.4094 31.951,5.7439 49.532,3.4717 11.779,-5.384 16.948,-10.031 44.434,-8.692 l 20.828,-2.0058 c 3.952,-5.4289 -0.3716,-8.2013 -1.3886,-12.035 z"
           id="path3792"
           style="fill:#000000;stroke:#000000;stroke-width:1px;stroke-linecap:butt;stroke-linejoin:miter" />
        <path
           d="m 260.55,733.97 c 3.6104,44.93 12.476,60.306 19.44,84.246 -4.769,3.7888 -6.535,7.5777 -7.6371,11.366 35.344,7.2062 32.669,7.8 46.517,-1.3372 -3.0086,-4.0117 -6.0171,-8.0234 -9.0256,-12.035 l 1.3886,-31.425 c 2.047,-19.038 2.5238,-37.321 -2.7771,-52.821 z"
           id="path3788"
           style="fill:#713e00;stroke:#000000;stroke-width:1px;stroke-linecap:butt;stroke-linejoin:miter" />
        <path
           d="m 152.24,804.84 c -11.994,7.276 -16.932,17.464 -15.968,30.088 -7.1975,5.8507 -13.584,9.7494 -24.3,24.07 -10.861,0.98337 -20.844,7.0407 -29.854,18.721 4.4389,10.428 18.635,9.8931 34.02,8.0234 16.2,-5.8226 32.4,-13.819 48.6,-14.71 9.7404,-0.0197 19.052,0.37336 30.548,-1.3372 2.6361,-11.415 0.87005,-31.309 0,-49.478 5.7821,-6.4616 0.10361,-7.4046 -0.69428,-10.698 z"
           id="path3790"
           style="fill:#2c1700;stroke:#000000;stroke-width:1px;stroke-linecap:butt;stroke-linejoin:miter" />
        <path
           d="m 159.18,720.59 c 2.6042,25.352 2.9456,49.977 0,73.548 l -4.86,8.0234 c -7.1793,4.6093 30.849,13.402 40.268,4.6803 2.0019,-1.8537 2.0828,-17.384 2.0828,-17.384 8.6433,-10.892 12.829,-27.508 15.968,-45.466 1.1087,-10.651 -0.1909,-18.983 -2.7771,-26.076 z"
           id="path3786"
           style="fill:#713e00;stroke:#000000;stroke-width:1px;stroke-linecap:butt;stroke-linejoin:miter" />
        <path
           d="m 131.41,582.86 c 4.9533,45.982 8.6926,82.129 11.803,69.536 4.4328,32.012 2.5052,44.935 11.108,54.158 l 1.7357,13.372 c 32.741,10.059 37.347,6.2787 55.195,-2.6744 -0.44233,-7.0331 8.3714,-15.631 6.2485,-30.756 l 2.7771,-50.146 c 5.5542,-3.0968 11.108,29.522 16.663,45.466 1.2254,16.108 4.342,29.787 11.108,38.78 3.7575,7.2108 10.671,15.47 10.761,17.384 79.389,19.188 47.707,-5.2336 51.03,-12.035 3.5446,-8.692 1.7013,-18.053 -2.0828,-26.745 9.8074,-52.013 1.3243,-86.413 -2.7771,-125.03 z"
           id="path3784"
           style="fill:#366642;stroke:#000000;stroke-width:1px;stroke-linecap:butt;stroke-linejoin:miter" />
        <path
           d="m 133.49,205.76 c -38.1,5.1142 -49.394,20.555 -70.817,32.094 -11.425,11.28 -18.055,29.949 -24.994,48.14 -14.567,17.525 -17.795,36.415 -2.7771,57.501 23.541,8.4067 34.249,4.4554 47.211,2.6745 l 18.051,-1.3372 6.9428,28.082 5.5542,44.129 v 25.407 l -8.3314,28.082 1.3886,12.035 c -8.6181,27.435 -12.663,43.861 -13.886,53.489 7.5033,6.2404 21.374,12.481 15.274,18.721 l -4.1657,10.698 c 4.3802,20.664 18.662,16.339 72.899,26.076 9.2571,-0.44575 20.597,2.4516 29.854,2.0058 14.74,5.0746 28.17,13.304 49.988,1.3372 19.427,-3.1358 41.885,-2.6221 47.211,-22.733 7.4056,1.1199 14.811,-0.67953 22.217,-6.6862 5.0712,-6.5441 -1.2326,-16.74 -6.9428,-26.745 l 10.761,-13.038 c -5.0914,-15.273 -9.8356,-23.751 -14.927,-28.416 2.7555,-18.747 1.474,-29.282 -10.393,-65.632 -2.9411,-1.9409 -4.0164,-20.618 -10.477,-25.948 4.1657,-16.893 4.2075,-21.726 8.3732,-48.829 16.991,3.4642 34.605,8.4306 44.434,-5.3489 10.746,-12.752 12.975,-21.403 16.663,-30.756 0.8426,-13.087 3.4524,-23.896 -2.7278,-50.509 -21.973,9.0683 -31.889,4.0729 -52.408,-1.863 l -38.56,-68.65 c -4.0262,-8.7592 -20.18,-15.356 -31.243,-20.727 l -5.9754,34.687 c -10.406,9.6989 -5.0321,24.869 -28.739,28.163 -19.781,1.0578 -39.784,3.9987 -69.428,-36.105 z"
           id="path3772"
           style="fill:#00731f;stroke:#000000;stroke-width:1px;stroke-linecap:butt;stroke-linejoin:miter" />
        <path
           d="m 243.19,216.46 c 2.6564,-7.4678 -4.253,-12.39 20.273,-12.837 l 377.55,41.588 c 20.991,9.6959 9.5823,29.389 -10.513,24.482 l -231.48,-26.91 -50.86,-4.77 c -75.237,-10.023 -45.722,-9.9686 -89.693,-13.535 z"
           id="path3776"
           style="fill:#a7a7a7;stroke:#000000;stroke-width:1px;stroke-linecap:butt;stroke-linejoin:miter" />
        <path
           d="m 125.77,169.02 c 1.2211,8.8687 2.2475,22.251 10.498,26.042 -2.8663,4.4574 -1.6297,8.9149 -0.69428,13.372 l 4.86,4.6803 90.256,2.0058 c 12.129,-3.8108 9.3163,-9.9083 11.108,-15.378 0.0379,-11.859 -3.0526,-18.811 -9.7199,-22.064 0.81083,-5.4596 3.6518,-8.9641 -0.69428,-19.39 l -5.0121,-7.9362 c -5.0937,2.0027 -24.961,3.7788 -74.83,11.279 -12.19,1.5783 -9.6799,3.7409 -6.9079,8.9214 z"
           id="path3782"
           style="fill:#ffcda8;stroke:#000000;stroke-width:1px;stroke-linecap:butt;stroke-linejoin:miter" />
        <path
           d="m 172.05,165.22 c -9.0584,1.2644 -22.616,-0.49555 -22.083,2.5835 -0.24922,7.9858 -7.5069,26.289 0.0764,30.503 l 20.945,12.801 c 11.892,5.7491 19.603,4.1764 24.3,-2.6745 l -5.47,-13.886 c -7.1695,-1.7823 -4.5421,-10.6 2.6508,-26.164 -3.3431,-5.2694 -16.294,-3.7398 -20.419,-3.164 z"
           id="path3828"
           style="fill:url(#radialGradient3091)" />
        <path
           d="m 192.46,194.9 c 2.5623,-1.0057 3.5644,-1.6654 3.9274,2e-5 1.2273,1.4153 4.1729,0.37658 5.4002,-0.7092 1.604,-0.75783 3.671,-2.7731 4.6638,2e-5 l 10.8,-2.8367 c 6.2037,13.141 4.215,22.269 -2.4546,22.457 -9.0765,0.0936 -20.12,0.67222 -30.438,-0.2364 1.4799,-4.5531 2.451,-17.563 8.1003,-18.675 z"
           id="path3872"
           style="fill:url(#radialGradient3088)" />
        <path
           d="m 119.61,215.12 c -8.9954,13.017 16.642,44.563 24.994,66.862 l 103.44,-38.726 45.346,-3.7823 c 40.731,6.7497 47.044,3.0255 107.76,10.157 3.5652,0.41879 60.741,4.7766 81.049,5.6116 20.308,0.83501 18.869,-2.5147 6.9266,-5.5967 -50.608,-8.4673 -192.76,-20.213 -234.83,-26.502 l -7.672,-15.291 c -40.788,1.9625 -83.903,0.31195 -127.02,7.2674 z"
           id="path3774"
           style="fill:#733100;stroke:#000000;stroke-width:1px;stroke-linecap:butt;stroke-linejoin:miter" />
        <path
           d="m 269.2,914.38 c 0,4.0118 -0.69427,10.846 -0.69427,10.846 16.002,10.783 37.91,9.3882 48.971,5.8218 4.6307,-3.6396 2.7218,-6.5418 2.0828,-11.873 z"
           id="path3796"
           style="fill:#000000;stroke:#000000;stroke-width:1px;stroke-linecap:butt;stroke-linejoin:miter" />
        <path
           d="m 273.04,828.94 c 3.0597,24.856 2.2538,43.521 -2.0828,59.473 -0.36681,5.2858 -2.0784,11.767 0,17.384 l -1.3886,8.0234 c 10.952,18.505 33.067,5.4271 49.294,8.6919 0.97965,-7.9245 3.5497,-10.744 -0.69428,-35.437 -5.7178,-7.9312 -1.0021,-35.958 0,-56.832 -15.696,5.231 -30.741,4.8121 -45.128,-1.3036 z"
           id="path3794"
           style="fill:#2c1700;stroke:#000000;stroke-width:1px;stroke-linecap:butt;stroke-linejoin:miter" />
        <path
           d="m 72.398,265.93 c 14.683,-9.2375 20.012,-12.809 29.16,-16.715 l 16.663,-4.0117 8.3314,-6.6862 c 8.8026,-2.9214 16.654,-3.096 23.606,-0.66863 19.998,-3.9463 33.453,-4.7417 42.351,-3.3431 l 2.0828,30.088 1.7357,8.0234 13.538,0.3343 5.5542,7.0205 c -17.124,12.811 -27.54,12.481 -39.574,20.058 l -27.077,21.396 -47.905,23.402"
           id="path3800"
           style="fill:#00741a;stroke:#000000;stroke-width:1px;stroke-linecap:butt;stroke-linejoin:miter" />
        <path
           d="m 193.2,233.84 c 1.173,-10.501 7.6254,-14.901 18.051,-14.71 l 36.103,-5.3489 c 2.7197,3.1603 11.385,4.7302 -1.3886,12.035 l -11.108,2.6745 c -2.2683,4.6914 -3.6474,9.5968 1.3886,16.047 16.661,3.7173 24.829,-3.2802 36.103,7.3548 -0.0383,2.365 -8.9407,10.131 -24.994,7.3548 5.8426,-0.30783 10.303,3.8436 10.403,8.6755 0.11217,5.4412 -5.5279,6.7104 -9.3613,6.3684 6.1328,3.3431 5.2797,1.9149 3.8186,9.695 -0.69884,3.721 -10.424,3.6863 -16.316,1.0029 -8.4099,0.38343 -14.616,-3.9071 -23.606,-7.0205 -6.014,1.1084 -13.284,1.9606 -15.621,-4.0117 -8.7898,-5.5673 -8.4194,-31.009 -3.4714,-40.117 z"
           id="path3778"
           style="fill:#ffcdb7;stroke:#000000;stroke-width:1px;stroke-linecap:butt;stroke-linejoin:miter" />
        <path
           d="m 111.28,453.15 c 29.569,7.5432 28.127,10.407 50.682,16.047 -1.5535,9.8064 -0.99818,4.9032 -6.2485,14.71 l -7.6371,7.3548 c -1.1102,26.085 -12.602,45.089 -22.217,69.536 -6.7114,-3.8358 -3.7028,-2.7066 -11.803,-6.0175"
           id="path3808"
           style="fill:none;stroke:#000000;stroke-width:1px;stroke-linecap:butt;stroke-linejoin:miter" />
        <path
           d="m 315.4,538.73 c -9.7199,11.589 -24.068,19.613 -43.045,24.07 -10.65,-19.121 -10.673,-42.335 -12.497,-64.856 -5.5542,4.2786 -11.108,-9.7244 -16.663,-18.721 22.158,-15.048 24.575,-21.426 48.537,-26.056 13.285,-1.9641 9.438,19.142 13.948,34.079"
           id="path3810"
           style="fill:none;stroke:#000000;stroke-width:1px;stroke-linecap:butt;stroke-linejoin:miter" />
        <path
           d="m 223.75,283.32 c 44.36,100.93 -52.471,196.58 -15.274,308.9"
           id="path3812"
           style="fill:none;stroke:#000000;stroke-width:1px;stroke-linecap:butt;stroke-linejoin:miter" />
        <path
           d="m 523.57,650.58 a 2.85715,2.85715 0 1 1 -5.7143,0 2.85715,2.85715 0 1 1 5.7143,0 z"
           transform="matrix(3.6449711,0,0,3.393228,-1259.0584,-1949.3095)"
           id="path3814"
           style="fill:url(#radialGradient3822);stroke:#000000;stroke-width:0.28434554;stroke-miterlimit:4;stroke-dasharray:none" />
        <path
           d="m 266.8,297.36 c -1.8107,19.039 14.201,36.171 28.465,53.489"
           id="path3824"
           style="fill:none;stroke:#000000;stroke-width:1px;stroke-linecap:butt;stroke-linejoin:miter" />
        <path
           d="m 305.33,270.81 c -7.8103,18.231 -10.833,27.625 -10.067,39.248 1.4386,5.2465 -1.1319,17.062 2.7771,24.07"
           id="path3826"
           style="fill:none;stroke:#000000;stroke-width:1px;stroke-linecap:butt;stroke-linejoin:miter" />
        <path
           d="m 199.33,166.77 c 1.0765,6.031 0.0704,12.285 6.6276,17.729 2.8356,3.2307 4.1416,5.965 4.492,9.1956 l 12.691,4.2787 c 19.046,1.3456 7.2873,-37.319 5.2709,-39.747 -9.1709,-10.789 -20.376,4.7013 -28.345,6.6526 z"
           id="path3844"
           style="fill:url(#radialGradient3072)" />
        <path
           d="m 188.98,165.32 11.418,-2.1681 12.638,-4.2718 15.39,18.513 -19.276,2.6171 c -6.5259,2.8579 -12.648,8.5224 -22.828,0.23639 l -8.3458,3.5459 c -8.4692,-3.9746 -4.3827,-8.6604 -2.2092,-13.238 2.234,-2.2587 6.0623,-15.997 13.213,-5.2342 z"
           id="path3862"
           style="opacity:0.70658683;fill:url(#radialGradient3069)" />
        <path
           d="m 199.23,164.22 c -1.0426,7.1816 3.0105,12.961 4.8111,19.36 2.6502,2.2381 3.8505,4.9416 1.031,8.9356 -2.9035,2.8584 -3.6422,2.2424 -5.3266,3.144"
           id="path3898"
           style="fill:none;stroke:#000000;stroke-width:1px;stroke-linecap:butt;stroke-linejoin:miter" />
        <path
           d="m 205.59,170.67 c 4.3012,-4.8773 9.4005,-5.1421 14.605,-4.7987"
           id="path3900"
           style="fill:none;stroke:#000000;stroke-width:1px;stroke-linecap:butt;stroke-linejoin:miter" />
        <path
           d="m 181.54,171.5 c -4.4771,0.67632 -8.2961,-0.79157 -16.495,5.4606"
           id="path3902"
           style="fill:none;stroke:#000000;stroke-width:1px;stroke-linecap:butt;stroke-linejoin:miter" />
        <path
           d="m 166.93,178.12 c 4.2384,1.6834 10.023,2.6156 14.262,-4.3023"
           id="path3904"
           style="fill:none;stroke:#000000;stroke-width:1px;stroke-linecap:butt;stroke-linejoin:miter" />
        <path
           d="m 280.99,606.53 a 1.5026,1.5026 0 1 1 -3.0052,0 1.5026,1.5026 0 1 1 3.0052,0 z"
           transform="matrix(1.9439846,0,0,1.8721258,-367.79011,-960.19584)"
           id="path3906"
           style="fill:#000000" />
        <path
           d="m 107.11,478.55 c 11.615,6.8829 23.201,13.877 36.602,13.88"
           id="path3916"
           style="fill:none;stroke:#000000;stroke-width:1px;stroke-linecap:butt;stroke-linejoin:miter" />
        <path
           d="m 261.09,497.15 c 12.83,-10.744 25.659,-15.255 38.489,-17.209"
           id="path3918"
           style="fill:none;stroke:#000000;stroke-width:1px;stroke-linecap:butt;stroke-linejoin:miter" />
        <path
           d="m 296.14,834.72 c 3.8706,17.644 1.0307,34.292 -1.031,50.304"
           id="path3920"
           style="fill:none;stroke:#000000;stroke-width:1px;stroke-linecap:butt;stroke-linejoin:miter" />
        <path
           d="m 158,812.88 c -7.0473,6.6702 -8.5581,13.291 -14.777,24.159 -8.1263,12.444 -20.709,14.875 -31.272,21.843"
           id="path3922"
           style="fill:none;stroke:#000000;stroke-width:1px;stroke-linecap:butt;stroke-linejoin:miter" />
        <path
           d="m 359.65,264.46 c -0.43339,-7.2218 6.708,-14.511 -1.0411,-19.385 -14.075,3.1742 -8.6957,-8.9011 -18.904,-10.424 -2.0983,-0.31308 -2.7603,8.016 -5.895,7.3992 -3.1346,-0.61686 -5.3703,-8.6181 -7.7234,-8.8521 -5.7412,-0.57101 -8.0744,8.5962 -10.715,8.6356 -5.0702,0.0756 2.3132,-7.5302 -2.8325,-8.7222 -12.135,-2.8109 -8.4365,6.79 -10.335,14.833 -3.1087,6.7203 1.4034,7.1351 1.1803,12.369 l 3.8185,8.4246 c 39.606,13.191 46.757,8.0665 51.475,1.8056 z"
           id="path3806"
           style="fill:#ffcdb7;stroke:#000000;stroke-width:1px;stroke-linecap:butt;stroke-linejoin:miter" />
        <path
           d="m 130.88,175.61 c 0.52486,4.5378 0.82441,9.5826 2.625,11.25 -1.3739,-0.95942 -1.4252,-3.2415 -1.5,-5.5 0.66902,-0.97623 1.7521,-1.4349 3.75,-0.75"
           id="path3053"
           style="fill:none;stroke:#000000;stroke-width:1px;stroke-linecap:butt;stroke-linejoin:miter" />
        <path
           d="m 126.55,138.83 c -1.6853,-0.28679 -4.01,1.5889 -2.3394,4.4364 -16.425,27 -4.4135,31.167 0.73767,29.821 8.8064,1.1236 11.954,1.5989 22.062,-3.5039 32.526,1.4542 32.941,2.6656 63.218,-6.3831 10.026,-3.1376 16.202,-4.7472 21.808,-10.042 5.7252,-2.5685 3.386,-8.4817 -6.3207,-17.49 -1.4529,-4.3759 -3.6281,-8.0487 -8.8474,-12.986 l 0.61813,10.097 z"
           id="path3804"
           style="fill:#005b06;stroke:#000000;stroke-width:1px;stroke-linecap:butt;stroke-linejoin:miter" />
        <path
           d="m 126.14,138.66 8.4519,-26.08 c 0.35468,-5.5573 6.9585,-15.839 20.583,-18.547 5.8185,-1.1567 12.683,4.7958 19.655,4.2574 6.9718,-0.53836 9.7408,-10.24 18.302,-6.3579 19.639,10.365 17.607,15.973 23.846,30.385 l 1.3104,9.8294 c -19.419,12.715 -61.839,9.5121 -92.149,6.5138 z"
           id="path3802"
           style="fill:#006307;stroke:#000000;stroke-width:1px;stroke-linecap:butt;stroke-linejoin:miter" />
        <path
           d="m 124.26,143.52 c 33.029,8.5023 83.742,7.022 98.233,-4.0783"
           id="path3943"
           style="fill:none;stroke:#000000;stroke-width:1px;stroke-linecap:butt;stroke-linejoin:miter" />
        <path
           d="m 117.33,119.56 c 5.3949,4.2785 10.684,9.0839 15.373,16.869 l 11.69,-8.6566 c -2.8037,-7.9588 -7.4588,-11.471 -12.356,-20.399 -2.5231,-3.3635 -6.7625,-9.0916 -9.4095,-0.0986 -1.324,1.2581 -4.1727,-1.1557 -3.9039,4.795 -2.6409,-0.36207 -5.446,-0.98104 -6.2022,1.608 z"
           id="path3947"
           style="fill:#e8e8e8;stroke:#000000;stroke-width:1px;stroke-linecap:butt;stroke-linejoin:miter" />
        <path
           d="m 130.05,133.3 c 4.7529,12.746 21.419,6.3996 12.773,-8.491 -2.3077,5.4299 -4.6608,10.799 -12.773,8.491 z"
           id="path3945"
           style="fill:#b90808;stroke:#000000;stroke-width:1px;stroke-linecap:butt;stroke-linejoin:miter" />
      </g>
    </g>
  </g>
</svg>
