<?xml version="1.0" encoding="UTF-8" standalone="no"?>
<!-- Created with Inkscape (http://www.inkscape.org/) -->

<svg
   xmlns:dc="http://purl.org/dc/elements/1.1/"
   xmlns:cc="http://creativecommons.org/ns#"
   xmlns:rdf="http://www.w3.org/1999/02/22-rdf-syntax-ns#"
   xmlns:svg="http://www.w3.org/2000/svg"
   xmlns="http://www.w3.org/2000/svg"
   version="1.1"
   width="48"
   height="48"
   id="svg2985">
  <defs
     id="defs2987" />
  <metadata
     id="metadata2990">
    <rdf:RDF>
      <cc:Work
         rdf:about="">
        <dc:format>image/svg+xml</dc:format>
        <dc:type
           rdf:resource="http://purl.org/dc/dcmitype/StillImage" />
        <dc:title></dc:title>
      </cc:Work>
    </rdf:RDF>
  </metadata>
  <g
     id="layer1">
    <rect
       width="46.57143"
       height="46.14286"
       x="1"
       y="0.85714287"
       id="rect2993"
       style="fill:#ff6600;stroke:#000000;stroke-width:0.5;stroke-miterlimit:4;stroke-opacity:1;stroke-dasharray:none" />
    <path
       d="m 35.142858,17.214285 a 0.42857143,0.35714287 0 1 1 -0.857143,0 0.42857143,0.35714287 0 1 1 0.857143,0 z"
       transform="matrix(1.7111642,0,0,1.8533971,-30.18756,-20.190621)"
       id="path3769"
       style="fill:#000000;fill-opacity:1;stroke:#000000;stroke-width:0.5;stroke-miterlimit:4;stroke-opacity:1;stroke-dasharray:none" />
    <path
       d="m 9.2857143,22.214285 a 0.2857143,0.35714287 0 1 1 -0.5714286,0 0.2857143,0.35714287 0 1 1 0.5714286,0 z"
       transform="matrix(2.3704121,0,0,1.6963297,-11.690852,-14.968467)"
       id="path3771"
       style="fill:#000000;fill-opacity:1;stroke:#000000;stroke-width:0.5;stroke-miterlimit:4;stroke-opacity:1;stroke-dasharray:none" />
    <path
       d="m 17.571428,38.642857 a 0.35714287,0.35714287 0 1 1 -0.714286,0 0.35714287,0.35714287 0 1 1 0.714286,0 z"
       transform="matrix(1.9834468,0,0,1.7834468,-16.357905,-29.774623)"
       id="path3773"
       style="fill:#000000;fill-opacity:1;stroke:#000000;stroke-width:0.5;stroke-miterlimit:4;stroke-opacity:1;stroke-dasharray:none" />
    <path
       d="m 35.142858,17.214285 a 0.42857143,0.35714287 0 1 1 -0.857143,0 0.42857143,0.35714287 0 1 1 0.857143,0 z"
       transform="matrix(1.7111642,0,0,1.8533971,-20.544702,1.3808086)"
       id="path3769-0"
       style="fill:#000000;fill-opacity:1;stroke:#000000;stroke-width:0.5;stroke-miterlimit:4;stroke-opacity:1;stroke-dasharray:none" />
    <path
       d="m 35.142858,17.214285 a 0.42857143,0.35714287 0 1 1 -0.857143,0 0.42857143,0.35714287 0 1 1 0.857143,0 z"
       transform="matrix(1.7111642,0,0,1.8533971,-26.687559,-9.6191914)"
       id="path3769-00"
       style="fill:#000000;fill-opacity:1;stroke:#000000;stroke-width:0.5;stroke-miterlimit:4;stroke-opacity:1;stroke-dasharray:none" />
    <path
       d="m 35.142858,17.214285 a 0.42857143,0.35714287 0 1 1 -0.857143,0 0.42857143,0.35714287 0 1 1 0.857143,0 z"
       transform="matrix(1.7111642,0,0,1.8533971,-37.687559,4.3808086)"
       id="path3769-3"
       style="fill:#000000;fill-opacity:1;stroke:#000000;stroke-width:0.5;stroke-miterlimit:4;stroke-opacity:1;stroke-dasharray:none" />
    <path
       d="m 35.142858,17.214285 a 0.42857143,0.35714287 0 1 1 -0.857143,0 0.42857143,0.35714287 0 1 1 0.857143,0 z"
       transform="matrix(1.7111642,0,0,1.8533971,-37.973273,-2.6191914)"
       id="path3769-9"
       style="fill:#000000;fill-opacity:1;stroke:#000000;stroke-width:0.5;stroke-miterlimit:4;stroke-opacity:1;stroke-dasharray:none" />
    <path
       d="m 35.142858,17.214285 a 0.42857143,0.35714287 0 1 1 -0.857143,0 0.42857143,0.35714287 0 1 1 0.857143,0 z"
       transform="matrix(1.7111642,0,0,1.8533971,-45.973273,-22.619191)"
       id="path3769-31"
       style="fill:#000000;fill-opacity:1;stroke:#000000;stroke-width:0.5;stroke-miterlimit:4;stroke-opacity:1;stroke-dasharray:none" />
    <path
       d="m 35.142858,17.214285 a 0.42857143,0.35714287 0 1 1 -0.857143,0 0.42857143,0.35714287 0 1 1 0.857143,0 z"
       transform="matrix(1.7111642,0,0,1.8533971,-20.830416,-16.476334)"
       id="path3769-2"
       style="fill:#000000;fill-opacity:1;stroke:#000000;stroke-width:0.5;stroke-miterlimit:4;stroke-opacity:1;stroke-dasharray:none" />
    <path
       d="m 35.142858,17.214285 a 0.42857143,0.35714287 0 1 1 -0.857143,0 0.42857143,0.35714287 0 1 1 0.857143,0 z"
       transform="matrix(1.7111642,0,0,1.8533971,-23.401845,8.0950943)"
       id="path3769-6"
       style="fill:#000000;fill-opacity:1;stroke:#000000;stroke-width:0.5;stroke-miterlimit:4;stroke-opacity:1;stroke-dasharray:none" />
    <path
       d="m 35.142858,17.214285 a 0.42857143,0.35714287 0 1 1 -0.857143,0 0.42857143,0.35714287 0 1 1 0.857143,0 z"
       transform="matrix(1.7111642,0,0,1.8533971,-53.401845,2.0950943)"
       id="path3769-34"
       style="fill:#000000;fill-opacity:1;stroke:#000000;stroke-width:0.5;stroke-miterlimit:4;stroke-opacity:1;stroke-dasharray:none" />
    <path
       d="m 1.3571429,23.957143 0,-22.7857144 22.9285711,0 22.928572,0 0,22.7857144 0,22.785714 -22.928572,0 -22.9285711,0 0,-22.785714 z M 36.863636,40.820779 c 0.761431,-0.76143 0.24977,-1.935065 -0.843616,-1.935065 -0.747844,0 -1.234306,0.434643 -1.234306,1.102825 0,1.059937 1.321103,1.58906 2.077922,0.83224 l 0,0 z M 18.536109,40.030831 c 0.473092,-0.372134 0.595841,-0.899414 0.329348,-1.414752 -0.235478,-0.455366 -0.478333,-0.587508 -1.079743,-0.587508 -0.222861,0 -0.509267,0.03993 -0.636457,0.08874 -0.348233,0.13363 -0.668954,0.854468 -0.564806,1.26943 0.118198,0.470933 0.709555,0.927545 1.201263,0.927545 0.214523,0 0.5522,-0.127555 0.750395,-0.283455 z m 4.041812,-2.924338 c 0.448418,-0.448416 0.46595,-1.151062 0.04003,-1.604429 -0.418646,-0.445627 -1.323493,-0.455763 -1.78732,-0.02002 -0.746627,0.701422 -0.17679,1.975099 0.88365,1.975099 0.354177,0 0.621541,-0.108554 0.863635,-0.35065 l 0,0 z M 6.8636364,34.820779 C 7.312053,34.372363 7.3295851,33.669717 6.9036694,33.21635 6.4850237,32.770723 5.5801779,32.760587 5.1163501,33.19633 4.3697224,33.897751 4.93956,35.171429 6,35.171429 c 0.3541767,0 0.6215409,-0.108555 0.8636364,-0.35065 l 0,0 z M 39.720779,34.106493 c 0.448417,-0.448416 0.46595,-1.151062 0.04003,-1.604429 -0.418646,-0.445627 -1.323493,-0.455763 -1.78732,-0.02002 -0.746627,0.701422 -0.17679,1.975099 0.88365,1.975099 0.354177,0 0.621541,-0.108554 0.863636,-0.35065 l 0,0 z m -17.428572,-4 c 0.448417,-0.448416 0.46595,-1.151062 0.04003,-1.604429 -0.418645,-0.445627 -1.323492,-0.455763 -1.78732,-0.02002 -0.746627,0.701422 -0.17679,1.975099 0.88365,1.975099 0.354178,0 0.621542,-0.108554 0.863636,-0.35065 l 0,0 z M 10.393252,23.60226 C 10.866344,23.230126 10.989092,22.702846 10.7226,22.187507 10.487121,21.732141 10.244267,21.6 9.6428571,21.6 c -0.222862,0 -0.5092675,0.03993 -0.6364568,0.08874 -0.3482336,0.13363 -0.668955,0.854467 -0.564806,1.26943 0.1181966,0.470933 0.7095544,0.927544 1.2012628,0.927544 0.2145222,0 0.5521999,-0.127554 0.7503949,-0.283454 z m 23.184669,-0.495767 c 0.448418,-0.448416 0.46595,-1.151062 0.04003,-1.604429 -0.418646,-0.445627 -1.323493,-0.455763 -1.78732,-0.02002 -0.746627,0.701422 -0.17679,1.975099 0.88365,1.975099 0.354177,0 0.621541,-0.108554 0.863635,-0.35065 l 0,0 z m 5.857143,-6.857143 c 0.448417,-0.448416 0.46595,-1.151062 0.04004,-1.604428 -0.418646,-0.445628 -1.323493,-0.455763 -1.78732,-0.02002 -0.746628,0.701421 -0.17679,1.975098 0.88365,1.975098 0.354177,0 0.621541,-0.108554 0.863635,-0.35065 l 0,0 z M 29.96468,12.602259 c 0.198196,-0.1559 0.401086,-0.44574 0.450869,-0.644089 0.104148,-0.414963 -0.216573,-1.1358 -0.564806,-1.26943 -0.297263,-0.11407 -0.975652,-0.11407 -1.272914,0 -0.348233,0.13363 -0.668955,0.854467 -0.564806,1.26943 0.118197,0.470932 0.709554,0.927544 1.201263,0.927544 0.214523,0 0.5522,-0.127554 0.750394,-0.283455 z M 14.292208,10.106494 c 0.448416,-0.4484171 0.465949,-1.151063 0.04003,-1.6044296 -0.418646,-0.445628 -1.323492,-0.455763 -1.787319,-0.02002 -0.746628,0.7014202 -0.176791,1.9750986 0.883649,1.9750986 0.354177,0 0.621541,-0.108554 0.863637,-0.35065 z"
       id="path3878"
       style="fill:#d4aa00;fill-opacity:1;stroke:#000000;stroke-width:0.07142857;stroke-miterlimit:4;stroke-opacity:1;stroke-dasharray:none" />
  </g>
</svg>
