<?xml version="1.0" encoding="UTF-8" standalone="no"?>
<!-- Created with Inkscape (http://www.inkscape.org/) -->

<svg
   xmlns:dc="http://purl.org/dc/elements/1.1/"
   xmlns:cc="http://creativecommons.org/ns#"
   xmlns:rdf="http://www.w3.org/1999/02/22-rdf-syntax-ns#"
   xmlns:svg="http://www.w3.org/2000/svg"
   xmlns="http://www.w3.org/2000/svg"
   version="1.1"
   width="48"
   height="48"
   id="svg2985">
  <defs
     id="defs2987" />
  <metadata
     id="metadata2990">
    <rdf:RDF>
      <cc:Work
         rdf:about="">
        <dc:format>image/svg+xml</dc:format>
        <dc:type
           rdf:resource="http://purl.org/dc/dcmitype/StillImage" />
        <dc:title></dc:title>
      </cc:Work>
    </rdf:RDF>
  </metadata>
  <g
     id="layer1">
    <rect
       width="46.57143"
       height="46.14286"
       x="1"
       y="0.85714287"
       id="rect2993"
       style="fill:#ff6600;stroke:#000000;stroke-width:0.5;stroke-miterlimit:4;stroke-opacity:1;stroke-dasharray:none" />
    <path
       d="m 1,1 25.714286,27.428571 -25.85714314,5"
       id="path3765"
       style="fill:none;stroke:#000000;stroke-width:1px;stroke-linecap:butt;stroke-linejoin:miter;stroke-opacity:1" />
    <path
       d="m 26.714286,28.285714 7.142857,18.285715"
       id="path3767"
       style="fill:none;stroke:#000000;stroke-width:1px;stroke-linecap:butt;stroke-linejoin:miter;stroke-opacity:1" />
    <path
       d="m 35.142858,17.214285 a 0.42857143,0.35714287 0 1 1 -0.857143,0 0.42857143,0.35714287 0 1 1 0.857143,0 z"
       transform="matrix(1.7111642,0,0,1.8533971,-30.18756,-20.190621)"
       id="path3769"
       style="fill:#000000;fill-opacity:1;stroke:#000000;stroke-width:0.5;stroke-miterlimit:4;stroke-opacity:1;stroke-dasharray:none" />
    <path
       d="m 9.2857143,22.214285 a 0.2857143,0.35714287 0 1 1 -0.5714286,0 0.2857143,0.35714287 0 1 1 0.5714286,0 z"
       transform="matrix(2.3704121,0,0,1.6963297,-11.690852,-14.968467)"
       id="path3771"
       style="fill:#000000;fill-opacity:1;stroke:#000000;stroke-width:0.5;stroke-miterlimit:4;stroke-opacity:1;stroke-dasharray:none" />
    <path
       d="m 17.571428,38.642857 a 0.35714287,0.35714287 0 1 1 -0.714286,0 0.35714287,0.35714287 0 1 1 0.714286,0 z"
       transform="matrix(1.9834468,0,0,1.7834468,-16.357905,-29.774623)"
       id="path3773"
       style="fill:#000000;fill-opacity:1;stroke:#000000;stroke-width:0.5;stroke-miterlimit:4;stroke-opacity:1;stroke-dasharray:none" />
    <path
       d="M 26.571429,28.571429 47.428571,19.714286"
       id="path3794"
       style="fill:none;stroke:#000000;stroke-width:1px;stroke-linecap:butt;stroke-linejoin:miter;stroke-opacity:1" />
    <path
       d="m 35.142858,17.214285 a 0.42857143,0.35714287 0 1 1 -0.857143,0 0.42857143,0.35714287 0 1 1 0.857143,0 z"
       transform="matrix(1.7111642,0,0,1.8533971,-20.544702,1.3808086)"
       id="path3769-0"
       style="fill:#000000;fill-opacity:1;stroke:#000000;stroke-width:0.5;stroke-miterlimit:4;stroke-opacity:1;stroke-dasharray:none" />
  </g>
</svg>
