<?xml version="1.0" encoding="iso-8859-1"?>
<!-- Generator: Adobe Illustrator 16.0.0, SVG Export Plug-In . SVG Version: 6.00 Build 0)  -->
<!DOCTYPE svg PUBLIC "-//W3C//DTD SVG 1.1//EN" "http://www.w3.org/Graphics/SVG/1.1/DTD/svg11.dtd">
<svg version="1.1" id="Capa_1" xmlns="http://www.w3.org/2000/svg" xmlns:xlink="http://www.w3.org/1999/xlink" x="0px" y="0px"
	 width="592.574px" height="592.573px" viewBox="0 0 592.574 592.573" style="enable-background:new 0 0 592.574 592.573;"
	 xml:space="preserve">
<g>
	<g>
		<path d="M261.98,298.023l-6.597-0.054c-2.252,0-4.227,1.041-5.431,2.824l-9.359,8.89c-0.824,0.783-1.424,1.73-1.759,2.75
			l-27.229,22.154c-3.48-2.443-7.499-3.599-12.399-3.599c-1.828,0-3.802,0.147-6.406,0.481c-17.107,2.199-31.245,1.343-44.684-2.664
			c-1.028-0.306-5.255-1.823-10.147-3.586c-23.668-8.503-30.792-10.828-33.129-10.828c-1.713,0-3.484,1.142-4.076,2.758
			l-0.595,1.624c-0.372,1.02-0.318,2.146,0.143,3.133s1.297,1.742,2.321,2.109l33.771,12.032c-0.408,2.559,0.249,4.509,1.04,5.854
			c2.668,4.513,9.058,6.528,20.718,6.528c0.698,0,1.383-0.008,2.061-0.021c0.339,0.09,0.673,0.155,1.012,0.191
			c2.709,0.273,5.451,0.135,8.205-0.008c4.537-0.24,9.225-0.114,13.88-0.028c6.067,0.122,11.758,0.249,18.47-0.045
			c6.818-0.302,14.423-0.637,21.261-5.186c-1.853,2.362-3.656,4.725-5.414,7.038c-2.293,3.011-4.558,5.985-6.826,8.812
			c-10.167,12.677-18.768,24.333-26.292,35.627c-1.224,1.84-2.366,3.908-3.468,5.907c-1.824,3.309-3.709,6.724-5.871,8.919
			c-0.804,0.812-1.812,1.461-2.881,2.15c-2.529,1.632-5.989,3.868-7.107,9.09c-1.342,6.268,1.754,11.971,4.239,16.549
			c0.661,1.22,1.31,2.403,1.84,3.558c1.844,3.99,3.606,8.033,5.369,12.073c1.228,2.818,2.46,5.643,3.717,8.441l8.479,18.886
			c4.582,10.2,9.16,20.396,13.725,30.604c1.403,3.138,2.681,6.622,4.035,10.31c3.627,9.895,7.735,21.106,15.639,27.948
			c17.34,15.015,35.61,29.335,54.312,42.575c1.755,1.244,4.174,0.905,5.524-0.764c1.354-1.672,1.179-4.108-0.4-5.564
			c-5.288-4.884-11.118-9.278-16.756-13.525c-3.044-2.293-6.083-4.582-9.025-6.94c-8.723-6.993-12.909-12.325-18.78-20.375
			c0.016-0.037,0.037-0.069,0.053-0.103c0.506-1.023,0.559-2.211,0.146-3.28c-1.481-3.822-2.938-7.634-4.394-11.444
			c-6.744-17.646-13.717-35.896-22.485-53.432c-5.887-11.774-11.697-23.859-17.312-35.549c-2.162-4.496-4.321-8.992-6.491-13.484
			c2.942-12.664,10.849-24.17,17.85-34.361c5.732-8.353,12.13-16.528,18.311-24.436l3.178-4.076c1.29-1.648,2.595-3.292,3.913-4.929
			c-3.929,18.54-0.747,35.541,9.499,50.604c7.168,10.539,17.968,17.81,32.101,21.607c8.042,2.158,16.092,3.252,23.929,3.252
			l0.833-0.004l0.922,0.004c7.838,0,15.892-1.094,23.93-3.252c14.133-3.798,24.933-11.068,32.105-21.607
			c10.24-15.063,13.427-32.064,9.494-50.604c1.321,1.637,2.627,3.28,3.912,4.929l3.183,4.076
			c6.182,7.907,12.579,16.083,18.312,24.436c7.001,10.191,14.908,21.697,17.85,34.361c-2.171,4.492-4.333,8.988-6.491,13.484
			c-5.614,11.689-11.424,23.774-17.312,35.549c-8.768,17.536-15.74,35.786-22.484,53.432c-1.453,3.811-2.913,7.622-4.395,11.444
			c-0.412,1.069-0.359,2.257,0.146,3.28c0.017,0.037,0.033,0.069,0.054,0.103c-5.871,8.05-10.058,13.382-18.78,20.375
			c-2.942,2.358-5.981,4.647-9.025,6.94c-5.639,4.247-11.469,8.642-16.757,13.525c-1.578,1.456-1.754,3.893-0.399,5.564
			c0.804,0.988,1.979,1.51,3.17,1.51c0.816,0,1.641-0.244,2.354-0.75c18.698-13.236,36.973-27.561,54.312-42.575
			c7.899-6.842,12.012-18.054,15.639-27.948c1.354-3.688,2.632-7.177,4.035-10.31c4.562-10.209,9.144-20.404,13.722-30.604
			l8.478-18.887c1.257-2.803,2.485-5.622,3.718-8.441c1.762-4.039,3.524-8.082,5.369-12.072c0.53-1.154,1.179-2.338,1.84-3.558
			c2.484-4.578,5.577-10.282,4.239-16.549c-1.114-5.218-4.578-7.454-7.107-9.09c-1.069-0.689-2.077-1.339-2.877-2.15
			c-2.166-2.191-4.051-5.61-5.871-8.919c-1.102-1.999-2.239-4.067-3.468-5.908c-7.523-11.297-16.124-22.949-26.291-35.626
			c-2.269-2.828-4.533-5.802-6.826-8.813c-1.759-2.309-3.562-4.676-5.414-7.042c6.842,4.554,14.483,4.888,21.555,5.202
			c6.046,0.266,12.109,0.155,18.176,0.033c4.603-0.086,9.229-0.213,13.881,0.028c2.75,0.143,5.459,0.285,8.229,0.004
			c0.33-0.032,0.656-0.094,0.987-0.188c0.677,0.012,1.362,0.021,2.06,0.021c11.661,0,18.051-2.012,20.719-6.528
			c0.796-1.342,1.448-3.297,1.04-5.854l33.771-12.032c1.024-0.367,1.86-1.122,2.321-2.109s0.515-2.113,0.143-3.133l-0.596-1.633
			c-0.587-1.607-2.357-2.75-4.071-2.75c-2.334,0-9.453,2.326-33.122,10.829c-4.896,1.758-9.122,3.28-10.15,3.586
			c-13.448,4.007-27.568,4.863-44.688,2.664c-2.603-0.334-4.578-0.481-6.405-0.481c-4.9,0-8.919,1.155-12.399,3.599l-27.229-22.154
			c-0.339-1.02-0.935-1.967-1.763-2.754l-9.359-8.887c-1.208-1.787-3.187-2.823-5.496-2.823l-6.532,0.054v-0.054
			c-0.053-2.733-0.102-5.462-0.176-8.192l1.71-0.416c1.175-0.216,2.559-0.535,3.917-1.249l1.946-1.02
			c23.48-12.342,47.756-25.104,71.51-37.912c4.88-2.627,9.56-5.646,14.093-8.576c1.261,0.062,2.525-0.228,3.635-0.869
			c4.704-1.546,8.417-5.275,11.343-11.375c2.606-5.443,5.026-11.057,7.364-16.483c1.158-2.689,2.317-5.374,3.496-8.05
			c0.645-1.457,0.768-3.031,0.396-4.354c-0.123-2.974,7.258-13.88,10.032-17.984c1.562-2.31,2.881-4.268,3.615-5.533
			c8.515-14.7,8.482-28.927,8.445-43.986l-0.004-3.125c0-1.081-0.796-2.117-1.562-2.884c-0.768-0.767-2.171-1.191-3.252-1.191
			c-4.022,0-4.149,1.424-5.382,15.043c-0.265,2.921-0.592,6.552-0.705,7.177c-0.996,4.104-3.044,7.581-5.419,11.616l-1.31,2.24
			c-3.039,5.267-6.405,10.62-9.972,16.283c-10.433,16.573-21.216,33.705-25.691,51.714c-2.154,1.31-8.222,3.814-10.653,4.818
			c-1.767,0.726-3.17,1.313-3.777,1.616l-53.032,26.508c1.95-2.534,3.9-5.166,5.74-7.846c6.182-9,12.277-18.262,18.169-27.213
			c5.059-7.691,10.122-15.382,15.291-22.999c2.293-3.382,5.5-6.993,8.891-10.816c10.727-12.089,24.076-27.128,15.178-44.692
			c-0.216-0.429-0.478-0.833-0.767-1.195c-0.18-1.477-0.404-2.828-0.674-4.097c-3.758-17.65-8.005-36.467-12.982-57.52
			c1.036-19.809-9.498-34.876-19.686-49.446l-0.474-0.677c-5.549-7.932-11.229-15.773-16.924-23.64l-7.185-9.938
			c-1.27-1.767-3.701-2.232-5.524-1.045c-1.824,1.175-2.407,3.579-1.322,5.463l6.858,11.856
			c5.402,9.323,10.796,18.633,16.055,28.021c1.102,1.966,2.313,3.929,3.529,5.892c0.763,1.236,1.526,2.468,2.265,3.708
			c0.208,0.514,0.51,1.037,0.987,1.706c2.252,3.99,3.488,7.05,4.007,9.922c4.835,26.749,8.992,54.101,13.007,80.552
			c1.073,7.05,2.142,14.101,3.228,21.146c-3.113,2.893-5.978,7.393-9.147,12.656c-1.053,1.746-1.983,3.305-2.767,4.39
			l-18.205,25.333c-12.468,17.369-24.912,34.758-37.258,52.208c-1.408,1.982-2.452,4.084-3.351,6.197
			c-1.33-3.472-3.459-6.687-7.082-9c-1.253-0.8-1.571-1.245-1.604-3.468c-0.144-10.131-7.716-17.312-17.222-15.712
			c-1.212,0.2-2.272,0.935-2.881,2.003c-0.607,1.073-0.702,2.354-0.253,3.5l2.623,6.728l-5.553-0.22l-5.214,0.22l2.624-6.728
			c0.444-1.146,0.351-2.432-0.253-3.5c-0.608-1.069-1.668-1.803-2.88-2.003c-9.494-1.607-17.079,5.582-17.222,15.712
			c-0.028,2.223-0.351,2.664-1.599,3.468c-3.627,2.313-5.757,5.524-7.087,9c-0.902-2.113-1.946-4.207-3.35-6.193
			c-12.346-17.454-24.791-34.843-37.259-52.212l-18.205-25.337c-0.779-1.085-1.713-2.64-2.766-4.386
			c-3.17-5.263-6.034-9.764-9.147-12.656c1.085-7.046,2.154-14.096,3.228-21.146c4.015-26.451,8.172-53.807,13.007-80.552
			c0.518-2.872,1.758-5.932,3.798-9.592c0.012-0.017,0.429-0.625,0.441-0.641c0.314-0.44,0.567-0.906,0.763-1.403
			c0.734-1.241,1.498-2.469,2.256-3.701c1.216-1.962,2.428-3.925,3.529-5.892c5.259-9.388,10.653-18.699,16.055-28.021l6.858-11.856
			c1.085-1.885,0.502-4.288-1.322-5.463c-1.824-1.179-4.251-0.718-5.524,1.045l-7.185,9.938
			c-5.696,7.866-11.379,15.708-16.924,23.64l-0.474,0.677c-10.192,14.57-20.726,29.637-19.686,49.446
			c-4.978,21.049-9.225,39.865-12.982,57.52c-0.269,1.269-0.494,2.62-0.673,4.097c-0.293,0.367-0.551,0.767-0.771,1.195
			c-8.898,17.564,4.451,32.603,15.178,44.692c3.395,3.827,6.597,7.434,8.89,10.816c5.169,7.617,10.233,15.308,15.292,22.999
			c5.892,8.952,11.987,18.213,18.168,27.213c1.84,2.681,3.79,5.312,5.74,7.846l-53.032-26.508c-0.604-0.298-2.011-0.89-3.774-1.616
			c-2.432-1.004-8.499-3.505-10.653-4.818c-4.476-18.009-15.259-35.137-25.692-51.714c-3.566-5.667-6.936-11.016-9.972-16.283
			l-1.31-2.24c-2.375-4.031-4.418-7.511-5.398-11.53c-0.134-0.706-0.461-4.337-0.726-7.258c-1.232-13.619-1.359-15.043-5.381-15.043
			l-0.734-0.004c-1.082,0-2.122,0.428-2.885,1.195s-1.195,1.803-1.195,2.885l-0.004,3.125c-0.037,15.06-0.073,29.291,8.446,43.987
			c0.734,1.269,2.048,3.223,3.615,5.532c2.779,4.104,10.155,15.01,10.074,17.789c-0.412,1.518-0.286,3.093,0.359,4.549
			c1.183,2.672,2.338,5.357,3.497,8.05c2.338,5.427,4.757,11.041,7.364,16.479c2.921,6.104,6.638,9.833,11.343,11.379
			c1.105,0.641,2.35,0.93,3.635,0.869c4.529,2.929,9.212,5.949,14.088,8.576c23.754,12.807,48.03,25.569,71.51,37.911l1.946,1.024
			c1.354,0.71,2.738,1.028,3.705,1.199l1.922,0.461c-0.074,2.726-0.123,5.455-0.176,8.188v0.058H261.98z"/>
	</g>
</g>
<g>
</g>
<g>
</g>
<g>
</g>
<g>
</g>
<g>
</g>
<g>
</g>
<g>
</g>
<g>
</g>
<g>
</g>
<g>
</g>
<g>
</g>
<g>
</g>
<g>
</g>
<g>
</g>
<g>
</g>
</svg>
