<?xml version="1.0" encoding="iso-8859-1"?>
<!-- Generator: Adobe Illustrator 16.0.0, SVG Export Plug-In . SVG Version: 6.00 Build 0)  -->
<!DOCTYPE svg PUBLIC "-//W3C//DTD SVG 1.1//EN" "http://www.w3.org/Graphics/SVG/1.1/DTD/svg11.dtd">
<svg version="1.1" id="Capa_1" xmlns="http://www.w3.org/2000/svg" xmlns:xlink="http://www.w3.org/1999/xlink" x="0px" y="0px"
	 width="576.915px" height="576.915px" viewBox="0 0 576.915 576.915" style="enable-background:new 0 0 576.915 576.915;"
	 xml:space="preserve">
<g>
	<g>
		<path d="M6.048,433.363c0.82,0.146,1.628,0.216,2.477,0.216c6.308,0,13.664-3.916,29.78-12.492
			c2.664-1.42,5.565-2.967,8.739-4.636c6.222-3.292,14.309-6.838,22.868-10.591c17.365-7.613,35.321-15.488,41.004-22.665
			c8.715-11.024,69.021-75.316,80.384-82.591c2.64-2.514,4.61-12.914,6.585-34.778c0.678-7.491,1.861-16.438,3.517-26.602
			c2.55-0.645,5.059-1.322,7.548-2.007c-0.522,3.109-1.098,6.597-1.71,10.314c-3.203,19.486-7.584,46.137-11.306,56.562
			c-7.189,8.2-20.269,25.512-32.925,42.256c-11,14.558-21.392,28.308-26.381,34.012c-11.245,12.864-33.423,24.896-44.088,30.677
			C74.009,421.111,57.966,428.442,55,429.532c-0.975,0.354-1.22,1.077-1.122,1.636c0.334,1.89,5.014,2.922,7.324,2.922
			c1.069,0,1.995-0.159,2.75-0.47c5.614-2.313,7.263-3.207,11.253-5.356c3.594-1.942,9.021-4.872,20.935-10.792
			c19.282-9.421,36.169-21.478,44.076-31.469c1.448-1.832,3.917-5.06,7.066-9.181c14.549-19.013,44.823-58.576,54.46-64.733
			c1.873-1.786,3.289-9.742,5.63-23.655c1.15-6.83,2.338-13.889,3.672-20.062c2.056-9.478,4.305-20.526,6.879-33.75
			c15.275-4.598,28.98-9.637,41.09-14.092c4.994-1.836,9.739-3.583,13.966-5.055c-0.294,2.35-0.592,4.271-0.922,5.969
			c-5.01,25.941-14.1,80.744-14.765,84.75c-1.918,2.746-4.011,5.88-6.267,9.413c-11.632,11.53-21.783,23.46-31.604,34.994
			c-7.267,8.539-14.786,17.368-22.668,25.729c-14.599,16.438-31.881,24.206-45.309,29.135c-0.098,0.037-0.192,0.086-0.273,0.155
			c-0.828,0.645-2.378,0.918-3.741,1.159c-1.873,0.33-3.493,0.616-4.047,1.864c-0.31,0.697-0.18,1.501,0.379,2.395
			c1.187,1.886,2.864,2.885,4.847,2.885c1.905,0,3.986-0.935,5.806-2.558c17.838-8.964,37.675-20.054,49.556-34.317
			c11.155-13.378,21.041-24.084,30.102-33.517c-4.692,8.103-9.323,16.323-13.839,24.337c-6.405,11.371-12.456,22.109-17.719,30.837
			c-17.283,20.926-34.655,31.362-43.003,36.381c-4.186,2.514-5.406,3.284-5.683,4.28c-0.171,0.591-0.012,1.252,0.449,1.868
			c0.681,0.91,2.215,1.881,4.472,1.881c1.081,0,2.215-0.225,3.378-0.661c0.114-0.045,0.22-0.105,0.314-0.188
			c2.758-2.424,6.602-5.463,11.049-8.979c12.725-10.065,30.155-23.848,36.704-35.133c13.207-22.767,23.505-40.213,31.779-54.236
			c5.043-8.547,9.303-15.769,12.828-21.868c4.7-5.129,7.401-8.589,9.033-11.571c2.624-4.777,5.227-16.397,8.242-29.849
			c1.632-7.279,3.317-14.806,5.239-22.395c3.684-14.517,8.499-31.75,12.954-46.369c9.539,5.189,15.716,10.738,20.265,14.827
			l0.453,0.408c0.723,3.864,1.804,9.062,2.958,12.579c1.012,3.019,3.827,10.457,8.181,14.329c0.873,0.775,2.044,1.171,3.484,1.171
			c3.423,0,7.649-2.26,9.196-3.158c1.853,1.306,7.854,5.137,11.525,4.354c4.655-0.987,12.75-10.331,15.623-16.851
			c0.257-0.579,0.473-1.155,0.656-1.73c3.819-2.436,6.092-5.031,7.928-7.132c1.628-1.856,2.913-3.325,4.688-4.08
			c0.303-0.13,0.522-0.396,0.596-0.714c0.474-2.109,0.829-4.113,1.073-6.075c1.575,1.383,3.044,2.444,4.317,3.113
			c3.79,5.128,8.208,8.568,13.142,10.229c4.896,17.638,19.086,68.772,21.628,78.172c3.027,11.212,10.306,18.156,10.481,18.295
			c0.062,0.086,6.222,8.662,15.124,16.83c23.31,21.339,80.523,72.571,108.292,87.427c6.988,3.741,13.9,6.666,18.033,7.633
			c1.995,0.478,4.37-1.75,5.223-3.292c0.665-1.204,0.485-1.967,0.225-2.387c-0.47-0.763-1.433-0.906-3.55-1.225
			c-3.819-0.571-10.931-1.636-19.829-7.119c-13.733-8.47-44.284-31.225-66.169-50.335c-25.06-21.918-51.144-50.788-51.294-50.931
			c-0.082-0.131-8.177-13.305-15.835-37.532c-4.745-15.018-10.167-34.312-15.3-54.464c1.881-0.049,3.737-0.363,5.532-0.942
			c4.868,13.276,10.412,28.584,14.681,40.372c2.305,6.369,4.238,11.706,5.463,15.047c1.42,5.59,11.595,11.485,13.052,12.305
			c1.424,1.616,15.386,17.414,22.954,24.04c3.398,2.979,6.548,5.798,9.575,8.511c15.79,14.146,28.263,25.316,55.101,39.73
			c14.574,4.994,28.784,5.741,35.957,5.741c1.081,0,2.102-0.017,3.044-0.045l0.461-0.009c1.869,0,3.831,0.339,5.41,0.612
			c1.122,0.196,2.008,0.347,2.644,0.347c0.384,0,0.935-0.049,1.326-0.461c0.192-0.204,0.351-0.661,0.335-0.938
			c-0.29-4.521-2.351-5.406-5.811-5.406c-0.669,0-1.411,0.029-2.231,0.062c-0.714,0.024-1.485,0.058-2.321,0.069
			c-16.777,0.257-27.275-1.546-39.703-7.018c-9.257-4.056-12.207-6.503-18.082-11.375c-3.868-3.211-8.687-7.205-17.169-13.248
			c-31.954-22.754-51.061-50.416-51.392-50.861c-0.036-0.036-3.921-3.818-9.751-16.458c-5.708-12.387-11.159-27.295-16.022-40.755
			c6.614,2.913,16.12,6.695,27.034,9.804c10.567,3.015,20.163,6.328,29.445,9.527c11.339,3.909,22.053,7.605,32.913,10.171
			c2.901,1.681,13.958,5.471,15.309,5.765c2.358,0.494,10.979,0.836,11.347,0.853c0.42,0.037,0.841-0.249,0.995-0.661
			c0.155-0.412,0.029-0.877-0.31-1.155c-0.18-0.147-4.488-3.599-10.657-4.892c-0.89-0.184-1.873-0.404-2.868-0.62
			c-3.313-0.73-6.345-1.432-7.475-1.33c-8.597-2.746-18.091-6.128-28.136-9.706c-11.946-4.255-24.305-8.658-35.667-12.15
			c-11.538-3.545-23.562-10.017-29.127-13.203c0.424-0.612,0.722-1.362,0.901-2.268c2.424,0.343,5.092,0.514,7.956,0.514
			c13.529,0,29.657-3.896,39.352-7.234c7.104-2.444,18.001-7.752,27.613-12.44c6.385-3.113,11.901-5.802,14.753-6.879
			c8.438-3.166,15.056-3.794,18.238-4.097c1.452-0.139,1.941-0.184,2.301-0.42c0.384-0.245,0.596-0.767,0.474-1.204
			c-0.249-0.849-1.159-0.849-2.036-0.849c-4.316,0-17.442,1.481-24.301,5.145c-8.687,4.667-29.07,14.051-40,17.568
			c-14.562,4.688-26.112,5.671-33.236,5.671c-5.345,0-9.221-0.555-11.289-1.13c-0.09-0.563-0.232-1.469-0.371-2.387
			c-0.184-1.179-0.302-1.942-0.384-2.44c5.761-1.881,22.905-7.96,29.539-11.179c18.319-8.911,41.208-20.506,46.215-25.174
			c7.274-6.785,17.932-11.179,18.033-11.22c0.261-0.106,0.47-0.318,0.567-0.58c0.102-0.261,0.086-0.559-0.037-0.812
			c-0.143-0.29-0.514-0.779-1.428-0.779c-2.742,0-12.403,5.353-18.576,9.784c-3.97,2.86-18.78,13.023-42.771,23.701
			c-16.659,7.413-29.593,10.326-34.166,11.204c-3.778-7.842-9.498-15.06-15.451-19.482c-3.672-11.314-6.369-20.143-7.675-24.651
			c-0.967-3.366-4.59-10.318-9.6-10.318c-0.942,0-1.877,0.249-2.783,0.738c-4.431,2.407-11.93,14.097-17.597,23.778
			c-6.201-5.786-13.325-9.086-21.188-9.812c-6.663-0.624-12.313-1.195-17.274-1.706c-5.333-8.127-11.816-17.124-13.644-18.384
			c-1.191-0.82-3.533-1.31-6.263-1.31c-1.678,0-7.291,0.237-9.201,3.272c-0.098,0.155-0.212,0.372-0.347,0.771
			c-1.411-2.13-2.269-3.399-2.269-3.399c-0.167-0.249-0.432-0.408-0.726-0.44c-0.094-0.012-2.306-0.27-4.994-0.27
			c-5.031,0-8.197,0.902-9.409,2.685c-1.077,1.579-1.175,8.311-1.277,22.167l-0.045,5.092c-3.962-0.918-9.927-2.187-17.609-3.517
			c-2.974-6.442-5.842-12.975-8.38-18.756c-4.023-9.164-6.169-14.002-7.099-15.234c-2.624-3.448-5.398-5.194-8.246-5.194
			c-2.416,0-4.37,1.253-5.72,2.509c-1.64-2.305-5.329-3.162-8.335-3.162c-2.815,0-5.161,0.718-6.271,1.921
			c-2.586,2.807-5.267,12.983-8.67,32.934c-24.594,0.269-44.708,4.765-59.446,8.058c-18.331,4.092-32.925,10.694-36.32,16.418
			c-0.8,1.347-1.02,2.656-0.665,3.896c0.424,1.469-1.392,3.341-3.497,5.508c-3.501,3.603-7.858,8.083-5.99,14.656
			c0.874,3.076,5.549,3.472,9.527,3.472c3.88,0,8.841-0.44,14.088-0.906c6.32-0.563,13.484-1.195,20.241-1.195
			c2.771,0,5.284,0.102,7.593,0.318c-14.215,3.974-28.83,10.653-31.159,16.699c-0.551,1.432-0.408,2.819,0.416,4.011
			c3.036,4.419,23.056,4.896,31.526,4.896c14.859,0,30.755-1.334,42.885-3.582c-0.469,3.925-0.938,8.078-1.412,12.297
			c-1.917,17.046-3.896,34.668-6.749,42.783c-17.625,14.933-67.907,69.458-78.936,82.082c-7.56,8.637-29.715,18.192-45.896,25.173
			c-6.646,2.869-12.391,5.346-16.336,7.377l-6.426,3.313c-10.959,5.654-19.613,10.122-22.346,11.167
			c-1.069,0.399-2.619,0.596-4.741,0.596c-1.521,0-3.101-0.099-4.537-0.184c-2.546-0.159-4.463-0.233-5.39,0.085
			c-0.625,0.213-0.996,0.804-0.938,1.498C0.157,428.998,4,433.007,6.048,433.363z M223.341,147.314
			c-1.314,5.169-2.75,12.452-4.284,21.673l-0.743-0.049c-0.779-0.057-1.559-0.11-2.326-0.155c2.758-11.31,4.953-19.466,6.039-22.897
			C222.35,146.212,222.774,146.673,223.341,147.314z M230.138,169.844c0.824-4.3,1.567-8.119,2.228-11.33
			c2.872,3.708,6.189,8.062,9.739,12.774C237.898,170.725,233.953,170.248,230.138,169.844z M300.078,161.227
			c0.313-0.788,0.66-1.379,1.032-1.746c1.199,0.706,3.019,2.26,5.609,5.614c-1.709-0.208-3.211-0.399-4.528-0.575
			C301.473,163.385,300.768,162.288,300.078,161.227z M285.035,161.28c1.269,1.566,3.268,4.529,5.753,8.54
			c-0.273,2.179-0.567,4.463-0.874,6.838c-1.485,0.902-3.198,1.824-5.108,2.738l-0.008-0.11
			C284.231,172.598,283.48,163.667,285.035,161.28z M283.578,212.08c-0.698,2.636-1.396,4.933-2.117,6.981
			c-1.489,4.219-3.358,10.314-5.594,18.229c1.848-9.262,3.741-17.854,5.259-24.496C281.971,212.541,282.787,212.3,283.578,212.08z"
			/>
	</g>
</g>
<g>
</g>
<g>
</g>
<g>
</g>
<g>
</g>
<g>
</g>
<g>
</g>
<g>
</g>
<g>
</g>
<g>
</g>
<g>
</g>
<g>
</g>
<g>
</g>
<g>
</g>
<g>
</g>
<g>
</g>
</svg>
