<?xml version="1.0" encoding="iso-8859-1"?>
<!-- Generator: Adobe Illustrator 16.0.0, SVG Export Plug-In . SVG Version: 6.00 Build 0)  -->
<!DOCTYPE svg PUBLIC "-//W3C//DTD SVG 1.1//EN" "http://www.w3.org/Graphics/SVG/1.1/DTD/svg11.dtd">
<svg version="1.1" id="Capa_1" xmlns="http://www.w3.org/2000/svg" xmlns:xlink="http://www.w3.org/1999/xlink" x="0px" y="0px"
	 width="547.809px" height="547.809px" viewBox="0 0 547.809 547.809" style="enable-background:new 0 0 547.809 547.809;"
	 xml:space="preserve">
<g>
	<g>
		<path d="M2.48,361.549c0.869,1.506,1.089,3.383,1.636,5.08c1.069,3.321,1.812,6.81,3.341,9.906
			c1.771,3.59,3.448,7.295,6.512,10.191c2.416,2.285,4.255,5.174,6.516,7.643c2.987,3.264,6.104,6.409,9.254,9.515
			c0.428,0.424,1.379,0.428,2.089,0.44c2.391,0.045,4.794-0.114,7.181,0.024c3.199,0.191,6.316,0.077,9.596,0.995
			c3.468,0.972,7.515,1.09,11.326-0.489c1.869-0.775,4.247-0.616,6.356-0.44c4.305,0.363,8.67,0.669,12.844,1.673
			c3.219,0.774,6.157,2.672,9.291,3.888c2.02,0.783,4.194,1.167,6.254,1.856c2.252,0.755,4.443,1.681,6.675,2.493
			c1.689,0.612,3.382,1.208,5.1,1.718c2.167,0.641,4.415,1.04,6.524,1.823c1.514,0.563,2.844,1.607,4.28,2.392
			c1.126,0.615,2.248,1.256,3.439,1.717c1.73,0.665,3.562,1.069,5.268,1.787c1.656,0.698,3.187,1.682,4.798,2.485
			c1.224,0.607,2.501,1.117,3.741,1.697c3.195,1.489,6.349,3.08,9.592,4.459c2.807,1.191,5.741,2.073,8.56,3.231
			c1.754,0.723,3.362,1.783,5.1,2.559c1.551,0.689,3.272,1.028,4.766,1.812c2.33,1.228,4.476,2.799,6.797,4.039
			c1.542,0.824,3.244,1.366,4.904,1.95c1.036,0.363,2.129,0.559,3.207,0.832c0.959-0.249,2.016-0.632,3.101-0.783
			c2.929-0.412,3.705-2.068,2.293-4.643c-1.681-3.061-3.011-6.324-4.835-9.291c-1.138-1.848-2.913-3.301-4.386-4.944
			c-0.473-0.526-0.897-1.094-1.342-1.641c0.987-0.587,1.914-1.473,2.975-1.688c1.595-0.331,3.305-0.062,4.933-0.282
			c2.068-0.277,4.121-1.195,6.153-1.113c3.459,0.143,6.993,0.497,10.302,1.444c2.423,0.693,4.508,2.529,6.797,3.766
			c2.599,1.403,5.435,2.966,8.319,1.722c2.942-1.273,5.006-3.721,5.047-7.291c0.004-0.33,0.061-0.657,0.134-1.387
			c4.117,0.501,8.36-1.167,12.371,1.203c0.445,0.266,1.13,0.159,1.706,0.172c3.798,0.068,7.605-0.021,11.392,0.216
			c6.414,0.399,12.827,0.926,19.221,1.559c2.546,0.253,5.222,0.526,7.527,1.51c3.534,1.51,7.446,2.317,10.4,5.161
			c0.693,0.665,2.493,0.815,3.473,0.424c2.097-0.836,4.397-1.827,5.817-3.451c0.857-0.979,0.918-3.782,0.119-4.867
			c-2.534-3.448-5.852-5.949-10.438-6.565c-1.876-0.253-3.558-1.782-5.397-2.57c-1.522-0.652-3.109-1.22-4.721-1.562
			c-3.056-0.648-6.169-1.02-9.221-1.669c-3.855-0.82-7.674-1.808-11.514-2.721c-0.159-0.037-0.322-0.065-0.485-0.086
			c-4.309-0.551-8.613-1.146-12.93-1.632c-5.243-0.588-10.608-0.596-15.729-1.718c-9.951-2.179-19.963-0.592-29.923-1.191
			c-1.975-0.118-3.974,0.073-5.94-0.123c-4.431-0.437-8.898-0.771-13.251-1.632c-2.958-0.587-5.749-1.999-8.719-3.08
			c-1.754-3.452,1.359-5.063,3.142-6.985c3.501-3.773,7.593-7.038,10.841-10.999c2.195-2.677,3.459-6.148,4.965-9.348
			c0.804-1.705,3.982-2.697,5.826-1.562c0.465,0.285,0.902,0.718,1.408,0.82c2.97,0.62,6.055,0.869,8.911,1.819
			c2.688,0.897,5.157,2.473,7.695,3.811c2.125,1.122,4.219,2.297,6.295,3.505c1.93,1.122,3.778,2.387,5.736,3.456
			c2.04,1.113,4.027,2.097,6.479,2.542c9.58,1.726,19.201,1.603,28.83,1.228c5.23-0.204,10.608-0.359,15.594-1.718
			c3.166-0.86,6.246-0.645,9.306-1.228c3.827-0.73,7.602-1.746,11.399-2.632c0.318-0.073,0.657-0.073,0.979-0.127
			c3.477-0.57,6.993-0.971,10.416-1.774c2.31-0.543,4.46-1.738,6.729-2.501c2.011-0.678,4.129-1.057,6.132-1.755
			c2.228-0.774,4.378-1.767,6.568-2.655c1.433-0.58,2.856-1.171,4.305-1.714c2.881-1.077,6.051-1.697,8.568-3.329
			c1.754-1.139,4.279-1.453,5.275-3.999c0.343-0.877,2.338-1.57,3.545-1.521c1.167,0.049,2.551,0.926,3.391,1.844
			c2.15,2.367,3.885,5.117,6.084,7.43c3.492,3.668,6.711,7.618,11.256,10.217c2.473,1.416,4.55,3.521,6.822,5.296
			c0.18,0.139,0.457,0.167,0.697,0.212c2.636,0.498,5.275,0.991,7.911,1.485c0.103,0.298,0.204,0.592,0.307,0.89
			c-0.894,0.71-1.71,1.57-2.701,2.085c-1.212,0.632-2.546,1.072-3.876,1.419c-2.428,0.637-4.908,1.062-7.328,1.723
			c-2.994,0.819-5.948,1.799-8.927,2.692c-0.31,0.094-0.652,0.077-0.975,0.135c-2.983,0.538-5.99,0.995-8.939,1.677
			c-1.081,0.249-2.236,0.853-3.012,1.636c-1.99,2.012-4.308,2.734-7.091,2.901c-4.039,0.24-8.086,0.697-12.057,1.452
			c-1.795,0.343-3.382,1.701-5.12,2.469c-1.575,0.693-3.194,1.334-4.855,1.763c-3.818,0.987-6.707,3.37-9.326,6.107
			c-0.481,0.506-0.282,1.665-0.421,2.718c4.256,0,8.467,0.742,12.236-0.233c3.064-0.791,6.201-0.383,9.05-1.313
			c7.254-2.37,14.61-1.42,21.922-1.102c2.591,0.114,5.107,1.665,7.674,2.518c1.771,0.587,3.529,1.297,5.354,1.615
			c4.912,0.854,9.747,2.396,14.843,1.836c1.31-0.143,2.64-0.114,3.957-0.126c2.66-0.024,4.814-1.163,6.937-2.693
			c2.514-1.815,5.296-3.26,7.87-4.997c1.481-1,2.697-2.392,4.198-3.346c0.608-0.388,1.669-0.139,2.51-0.062
			c0.433,0.041,0.828,0.388,1.265,0.53c3.378,1.102,7.046,1.693,10.069,3.411c3.342,1.901,6.63,3.08,10.343,2.464
			c1.918-0.318,3.725-1.358,5.557-2.134c2.358-0.995,4.492-2.844,7.319-2.027c1.11,0.318,2.163,1.199,3.236,1.188
			c1.419-0.013,2.814-0.849,4.251-0.976c2.199-0.191,4.443-0.24,6.638-0.045c2.212,0.196,4.415,1.195,6.581,1.085
			c5.492-0.285,11.27-0.098,16.341-1.832c4.002-1.37,7.055,0.393,10.514,0.519c4.566,0.167,9.295,0.4,13.599,1.738
			c4.187,1.302,8.572,2.354,12.343,5.148c2.998,2.22,6.765,3.399,10.184,5.063c2.852,1.392,5.646,2.901,8.543,4.194
			c2.636,1.18,5.553,1.828,8.018,3.272c3.337,1.958,6.422,4.378,9.494,6.752c1.387,1.073,3.88,0.743,4.537-0.86
			c0.302-0.743,0.734-1.433,0.971-1.881c-0.354-1.469-0.62-2.767-0.987-4.035c-0.906-3.126-2.938-5.459-5.496-7.319
			c-3.149-2.285-6.368-4.48-9.6-6.643c-2.094-1.399-4.211-2.782-6.418-3.99c-3.016-1.645-6.128-3.104-9.196-4.651
			c-2.893-1.456-5.896-2.741-8.642-4.435c-2.966-1.832-5.695-4.048-8.531-6.1c0.004-0.021,0.012-0.041,0.017-0.062
			c0.571-0.437,1.15-0.873,1.733-1.313c2.012-0.408,4.044-0.768,5.974-1.416c3.619-1.22,7.544-1.754,10.502-4.623
			c1.143-1.105,2.713-1.774,4.116-2.595c0.571-0.334,1.2-0.845,1.787-1.146c5.435,0.339,10.453,3.26,13.896,7.495
			c1.306,1.604,3.677,1.783,5.513,0.991c0.261-0.036,0.526-0.077,0.783-0.109c0.09-0.172,0.18-0.339,0.273-0.502
			c0.154-0.118,0.302-0.241,0.437-0.376c1.183-1.183,1.562-2.627,1.354-4.043c0.126-3.636-3.317-7.744-6.912-8.111
			c-5.544-3.88-12.473-5.781-19.229-5.071c-6.495,0.682-12.261,3.423-17.638,6.879c-0.429,0.188-0.853,0.375-1.285,0.559
			c-0.515,0.221-1.105,0.323-1.665,0.355c-1.317,0.077-2.647-0.004-3.958,0.122c-5.092,0.481-10.289,0.53-15.242,1.661
			c-6.296,1.436-10.453-1.645-14.333-5.541c-2.562-2.57-4.668-5.598-6.973-8.421c-0.103-0.127-0.225-0.257-0.262-0.408
			c-0.562-2.224-1.098-4.451-1.668-6.671c-0.935-3.64-1.856-7.287-2.84-10.91c-0.461-1.701-0.886-3.447-1.641-5.022
			c-1.093-2.269-2.338-4.492-3.762-6.564c-1.542-2.248-3.247-4.414-5.104-6.41c-2.021-2.17-4.04-4.268-6.969-5.504
			c-3.525-1.488-6.688-3.802-10.119-5.54c-1.66-0.845-3.639-1.053-5.36-1.808c-2.607-1.139-5.125-2.493-7.667-3.778
			c-1.228-0.62-2.456-1.248-3.631-1.958c-2.236-1.351-4.337-2.954-6.675-4.08c-1.742-0.837-3.492-1.481-4.554-3.207
			c-0.53-0.86-1.044-1.734-1.436-2.383c2.529-1.399,4.476-2.533,6.475-3.558c1.224-0.624,2.615-0.942,3.786-1.64
			c2.697-1.612,5.483-3.158,7.907-5.129c3.823-3.105,7.523-6.397,11-9.882c2.484-2.493,4.81-5.259,6.683-8.229
			c2.354-3.741,4.097-7.862,6.255-11.738c1.889-3.39,3.529-6.81,4.382-10.656c0.657-2.954,1.771-5.855,3.044-8.609
			c1.803-3.896,4.725-7.005,7.862-9.914c2.688-2.497,5.643-4.827,7.805-7.731c2.102-2.823,3.436-6.242,4.94-9.478
			c2.632-5.655,5.741-11.004,10.686-14.9c2.04-1.607,4.766-2.33,7.141-3.525c2.533-1.272,5.034-2.611,7.531-3.958
			c2.036-1.097,4.067-2.198,6.051-3.382c2.036-1.212,3.994-2.546,6.018-3.778c1.221-0.742,2.481-1.42,3.754-2.068
			c4.101-2.105,7.842-4.721,10.955-8.119c2.587-2.827,4.888-5.92,7.527-8.69c1.954-2.048,4.427-3.606,6.36-5.671
			c2.473-2.64,4.729-5.504,5.406-9.258c0.38-2.098,1.118-4.157,1.281-6.267c0.249-3.207-1.379-5.925-2.55-8.821
			c-1.195-2.966-2.926-5.749-5.198-7.36c-3.835-2.713-6.581-6.679-11.102-8.678c-2.795-1.236-5.32-2.774-8.482-2.791
			c-0.775-0.004-1.534-0.465-2.325-0.588c-1.257-0.195-2.652-0.689-3.774-0.351c-1.203,0.363-2.411,0.645-3.619,0.856
			c-5.752-0.853-11.566-1.212-17.393-1.113c-1.208-1.017-2.338-2.583-3.374-3.782c-3.048-3.529-5.215-7.956-9.344-10.367
			c-3.288-1.922-6.169-4.603-10.098-5.483c-2.317-0.522-4.435-2.069-6.752-2.407c-2.62-0.384-5.504-1.261-8.001,0.746
			c-0.229,0.184-0.6,0.241-0.91,0.253c-4.117,0.163-7.018,2.595-9.715,5.3c-2.207,2.22-4.328,4.537-6.356,6.92
			c-0.926,1.085-1.566,2.42-2.293,3.668c-1.885,3.26-3.803,6.504-5.605,9.809c-2.432,4.468-6.83,4.802-11.122,5.679
			c-8.67,1.771-17.475,0.829-26.157,1.682c-3.183,0.313-6.491,1.579-9.376,3.603c-2.239,1.566-4.888,2.64-7.479,3.586
			c-3.06,1.114-6.259,1.853-9.4,2.75c-0.155,0.045-0.326,0.037-0.489,0.058c-4.733,0.562-9.494,0.954-14.183,1.754
			c-3.063,0.522-6.025,1.645-9.033,2.497c-0.158,0.045-0.306,0.118-0.469,0.146c-3.064,0.575-6.263,0.768-9.159,1.808
			c-4.052,1.453-8.373,0.665-12.261,1.8c-3.203,0.934-6.275,0.856-9.408,0.959c-4.949,0.163-9.915,0.269-14.859,0.044
			c-8.25-0.375-16.577-0.477-24.688-1.807c-3.966-0.649-8.095-0.229-11.795-1.412c-6.01-1.926-12.06-0.742-18.054-1.367
			c-3.86-0.399-7.728-1.117-11.579-1.04c-4.61,0.09-9.343,0.359-13.75,1.559c-2.534,0.689-5.047,0.759-7.511,1.338
			c-4.043,0.955-7.43,3.134-10.131,6.353c-3.839,4.57-7.577,9.237-11.628,13.615c-2.97,3.215-6.247,6.186-9.617,8.992
			c-2.856,2.383-6.038,4.378-9.082,6.536c-1.689,1.195-3.395,2.362-5.092,3.546c-2.419,0.637-4.676,1.894-6.458,3.823
			c-9.511,10.265-19.025,20.547-29.09,30.273c-5.015,4.847-10.147,9.584-15.479,14.08c-1.33,1.122-2.668,2.235-4.023,3.329
			c-0.024,0.021-0.057,0.045-0.086,0.069c-0.641,0.172-1.199,0.522-1.616,1.269c-0.804,0.629-1.566,1.225-1.566,1.236
			c-0.881,0.665-1.767,1.322-2.656,1.975c-3.06,1.086-5.573,2.942-7.67,5.271c-5.059,3.256-10.314,6.259-15.451,9.425
			c-0.844,0.065-1.685,0.359-2.513,1.008c-0.241,0.188-0.583,0.273-0.894,0.339c-2.713,0.583-5.471,1.004-8.131,1.767
			c-2.125,0.608-4.129,1.636-6.197,2.464c-1.494,0.601-3.044,1.073-4.488,1.775c-4.145,2.012-8.343,3.941-12.33,6.233
			c-3.027,1.742-6.087,3.664-8.523,6.116c-2.195,2.207-3.66,5.182-5.251,7.932c-1.065,1.844-1.792,3.884-2.648,5.847
			c-0.164,0.371-0.302,0.796-0.29,1.188c0.135,4.304-2.701,7.054-5.083,10.118c-2.011,2.583-3.933,5.304-5.431,8.205
			c-1.767,3.423-2.999,7.119-4.529,10.673c-1.367,3.179-3.088,6.23-4.137,9.503c-0.633,1.971-0.171,4.264-0.375,6.397
			c-0.322,3.288-1.465,6.658-1.02,9.82C0.579,354.507,0.571,358.249,2.48,361.549z M338.154,356.805
			c0.248-0.155,0.497-0.303,0.734-0.47l0.004,0.004c-0.192,0.318-0.384,0.633-0.575,0.946c-0.139-0.057-0.286-0.105-0.433-0.154
			C337.975,357.025,338.068,356.918,338.154,356.805z"/>
	</g>
</g>
<g>
</g>
<g>
</g>
<g>
</g>
<g>
</g>
<g>
</g>
<g>
</g>
<g>
</g>
<g>
</g>
<g>
</g>
<g>
</g>
<g>
</g>
<g>
</g>
<g>
</g>
<g>
</g>
<g>
</g>
</svg>
