<?xml version="1.0" encoding="UTF-8" standalone="no"?>
<!-- Created with Inkscape (http://www.inkscape.org/) -->

<svg
   xmlns:dc="http://purl.org/dc/elements/1.1/"
   xmlns:cc="http://creativecommons.org/ns#"
   xmlns:rdf="http://www.w3.org/1999/02/22-rdf-syntax-ns#"
   xmlns:svg="http://www.w3.org/2000/svg"
   xmlns="http://www.w3.org/2000/svg"
   version="1.1"
   width="48"
   height="48"
   id="svg2988">
  <defs
     id="defs2990" />
  <metadata
     id="metadata2993">
    <rdf:RDF>
      <cc:Work
         rdf:about="">
        <dc:format>image/svg+xml</dc:format>
        <dc:type
           rdf:resource="http://purl.org/dc/dcmitype/StillImage" />
        <dc:title></dc:title>
      </cc:Work>
    </rdf:RDF>
  </metadata>
  <g
     id="layer1">
    <path
       d="M 25.973424,4.0075041 45.908353,41.30871 c 1.550562,3.023722 1.339446,4.815761 -2.204087,4.624039 L 4.5305206,45.885825 C 2.3573717,46.037918 -0.42170949,46.05493 2.0214899,41.715215 L 22.061087,3.9285783 c 1.112327,-2.2254254 2.563372,-2.2737609 3.912337,0.078898 z"
       id="path3156"
       style="fill:#ff0000;fill-opacity:1;fill-rule:evenodd;stroke:none" />
    <path
       d="M 25.652699,8.0424385 42.537212,39.997897 c 0.96436,2.435547 0.385104,3.889779 -1.866818,3.961358 L 7.4909654,43.919017 C 6.3997357,44.009977 4.2600147,43.592242 5.3658673,40.346113 L 22.339023,7.9747979 c 0.748547,-1.3633834 2.813457,-1.3190358 3.313676,0.067631 z"
       id="path2384"
       style="fill:#ffff00;fill-opacity:1;fill-rule:evenodd;stroke:none" />
    <g
       transform="matrix(0.46433661,0,0,0.56071256,0.25305378,-2.1915233)"
       id="g3318">
      <path
         d="m 15.96041,76.955666 0,-1.952962 18.586807,0 -2.493711,-2.493711 c -0.698467,-0.533902 -0.431401,-1.205738 0.02418,-1.904505 l 4.71124,-6.232371 c 0.03561,-2.896597 0.988954,-5.988478 0.720893,-8.743847 -0.134098,-0.878342 0.08513,-1.050538 0.241229,-1.585805 0.598641,-1.287814 1.88665,-3.500475 2.789005,-5.104912 0.10813,-0.545749 0.362093,-1.091497 0.164483,-1.637246 -0.357377,-0.173133 -0.350579,-0.66492 -1.308588,-0.3125 -1.227893,0.703187 -2.453487,1.412697 -3.030457,3.905923 -0.86699,3.026871 -0.04288,3.024194 0.584528,3.217957 0.263058,0.302239 0.258447,0.604477 0.02156,0.906716 -0.757999,0.229028 -2.351834,0.332251 -3.098267,-0.34375 -0.751999,-1.792555 -0.688706,-4.46617 0.53359,-6.62685 0.566529,-1.174307 6.22908,-6.000761 11.790737,-5.100607 -0.347644,-1.558366 -0.918888,-2.559951 -0.592026,-4.175297 0.222293,-1.576632 0.855854,-3.932005 3.55514,-3.973266 3.537348,0.101405 4.422318,2.62876 4.377328,3.973266 0.03301,2.389668 -1.738362,3.721794 -3.923108,4.591234 -0.979924,0.624216 -0.517708,1.41675 -0.20422,2.099991 1.660353,1.032679 1.317686,2.55316 1.366244,3.747018 l 0.471405,7.542473 c 0.813933,2.409794 0.475815,4.728789 1.931144,5.998321 1.709824,1.491535 5.27716,1.819716 6.958198,3.362426 l 3.367175,-2.895771 1.683588,1.818274 c 0.875724,-0.147049 1.948651,-0.383735 1.952962,-0.134687 0.141656,-2.480097 0.950989,-4.654176 5.050762,-5.320136 l 2.977645,0.25 c 4.534017,5.719432 7.503483,11.438863 10.053323,17.158295 L 54.27511,76.973707 54.24386,75.008089 c 1.586187,-1.992436 3.211469,-3.613728 5.792869,-4.113344 -0.467648,-0.364561 -0.230394,-1.519808 -0.254844,-1.421711 l -2.096637,-1.271563 1.375,-1.212649 -8.990357,-5.353808 C 49.183098,60.222761 48.374712,58.505672 47.857013,56.752615 47.44795,54.733788 47.558888,53.160961 47.409826,51.365134 l -2.559053,4.848733 2.289679,2.828427 0.842652,1.239195 1.447027,2.12798 0.269374,9.42809 1.212183,1.077496 c 0.653773,1.337968 0.101101,1.54231 -0.171718,2.108117 l -5.851619,0.03516 -0.0039,-10.15715 c -0.746276,-1.883992 -1.244188,-3.767983 -3.26317,-5.651975 l -0.38791,5.786662 -4.564828,7.273099 0.404061,2.794755 17.167203,-0.101015 0.03906,1.981671 -38.318453,-0.02871 z"
         id="path3160"
         style="fill:#000000;fill-opacity:1;fill-rule:evenodd;stroke:none" />
      <path
         d="m 36.327611,53.882098 c 0.707107,0.441942 23.5113,12.109203 23.5113,12.109203 l -0.618718,1.060661 -23.511301,-11.932427 0.618719,-1.237437 z"
         id="path3316"
         style="fill:#000000;fill-opacity:1;fill-rule:evenodd;stroke:none" />
    </g>
  </g>
</svg>
