<?xml version="1.0" encoding="UTF-8" standalone="no"?>
<!-- Created with Inkscape (http://www.inkscape.org/) -->
<svg id="svg2" xmlns:rdf="http://www.w3.org/1999/02/22-rdf-syntax-ns#" xmlns="http://www.w3.org/2000/svg" height="48" width="48" version="1.2" xmlns:cc="http://creativecommons.org/ns#" xmlns:xlink="http://www.w3.org/1999/xlink" xmlns:dc="http://purl.org/dc/elements/1.1/">
 <defs id="defs4">
  <linearGradient id="linearGradient8543">
   <stop id="stop8545" stop-color="#fffef5" stop-opacity="0.94117647" offset="0"/>
   <stop id="stop8547" stop-color="#fce94f" stop-opacity="0" offset="1"/>
  </linearGradient>
  <radialGradient id="radialGradient7666" gradientUnits="userSpaceOnUse" cy="-72.42" cx="336.74" gradientTransform="matrix(0.136507,0,-4.484926e-5,0.07137743,-23.39816,12.31028)" r="297.21">
   <stop id="stop5014" stop-color="#fdf188" offset="0"/>
   <stop id="stop5016" stop-color="#d3bc00" offset="1"/>
  </radialGradient>
  <radialGradient id="radialGradient8549" xlink:href="#linearGradient8543" gradientUnits="userSpaceOnUse" cy="685.99" cx="420.88" gradientTransform="matrix(0.163532,-0.01065754,0.01078108,0.165425,-46.18187,-65.65506)" r="235.89"/>
  <radialGradient id="radialGradient9434" xlink:href="#linearGradient8543" gradientUnits="userSpaceOnUse" cy="286.47" cx="500.98" gradientTransform="matrix(0.224796,0.01017229,-0.00975947,0.215674,-73.87964,-54.89804)" r="40.975"/>
  <radialGradient id="radialGradient10317" xlink:href="#linearGradient8543" gradientUnits="userSpaceOnUse" cy="243.07" cx="293.82" gradientTransform="matrix(0.272962,-0.071724,0.05616202,0.213737,-78.54657,-24.30491)" r="48.783"/>
  <radialGradient id="radialGradient11208" gradientUnits="userSpaceOnUse" cy="270.68" cx="424.99" gradientTransform="matrix(0.08174351,0.01024998,-0.04335971,0.345793,6.123413,-84.50421)" r="38.452">
   <stop id="stop11204" stop-color="#c4a000" offset="0"/>
   <stop id="stop11206" stop-color="#c4a000" stop-opacity="0" offset="1"/>
  </radialGradient>
  <radialGradient id="radialGradient13895" xlink:href="#linearGradient8543" gradientUnits="userSpaceOnUse" cy="409.84" cx="340.36" gradientTransform="matrix(0.105628,-0.04514018,0.06692574,0.156607,-46.01605,-24.35485)" r="103.26"/>
  <radialGradient id="radialGradient18290" gradientUnits="userSpaceOnUse" cy="45.674" cx="29.899" gradientTransform="matrix(1,0,0,0.415385,0,26.70146)" r="30.366">
   <stop id="stop18286" stop-color="#000" offset="0"/>
   <stop id="stop20913" stop-color="#000" offset="0.5"/>
   <stop id="stop19165" stop-color="#000" stop-opacity="0" offset="1"/>
  </radialGradient>
  <radialGradient id="radialGradient2798" xlink:href="#linearGradient8543" gradientUnits="userSpaceOnUse" cy="424.16" cx="131.24" gradientTransform="matrix(0.101953,-0.04272301,0.09621296,0.229599,-48.67227,-64.24148)" r="35.935"/>
  <radialGradient id="radialGradient2813" gradientUnits="userSpaceOnUse" cy="10.943" cx="15.492" gradientTransform="matrix(1.402663,0,0,1.115648,-6.237984,0.0533075)" r="18.37">
   <stop id="stop2809" stop-color="#FFF" offset="0"/>
   <stop id="stop2811" stop-color="#FFF" stop-opacity="0" offset="1"/>
  </radialGradient>
 </defs>
 <metadata id="metadata7">
  <rdf:RDF>
   <cc:Work rdf:about="">
    <dc:format>image/svg+xml</dc:format>
    <dc:type rdf:resource="http://purl.org/dc/dcmitype/StillImage"/>
    <dc:contributor>
     <cc:Agent>
      <dc:title>Henrik Andersen</dc:title>
     </cc:Agent>
    </dc:contributor>
    <dc:title/>
    <dc:subject>
     <rdf:Bag>
      <rdf:li>developer</rdf:li>
      <rdf:li>dev</rdf:li>
      <rdf:li>tool</rdf:li>
      <rdf:li>make</rdf:li>
      <rdf:li>compile</rdf:li>
      <rdf:li>build</rdf:li>
      <rdf:li>code</rdf:li>
      <rdf:li>hacker</rdf:li>
     </rdf:Bag>
    </dc:subject>
    <dc:creator>
     <cc:Agent>
      <dc:title>Jakub Steiner</dc:title>
     </cc:Agent>
    </dc:creator>
    <dc:source>http://jimmac.musichall.cz</dc:source>
    <cc:license rdf:resource="http://creativecommons.org/licenses/publicdomain/"/>
   </cc:Work>
   <cc:License rdf:about="http://creativecommons.org/licenses/publicdomain/">
    <cc:permits rdf:resource="http://creativecommons.org/ns#Reproduction"/>
    <cc:permits rdf:resource="http://creativecommons.org/ns#Distribution"/>
    <cc:permits rdf:resource="http://creativecommons.org/ns#DerivativeWorks"/>
   </cc:License>
  </rdf:RDF>
 </metadata>
 <g id="layer1">
  <path id="path17409" fill="url(#radialGradient18290)" d="m60.265,45.674a30.366,12.614,0,1,1,-60.732,0,30.366,12.614,0,1,1,60.732,0z" transform="matrix(0.742527,0,-0.05812964,1.428611,4.500517,-36.68345)"/>
  <path id="path3120" d="M23.153,1.1802c-2.773,0.0389-5.287,0.7107-7.519,1.8394-1.092,2.1519-4.69,4.7098-6.1651,4.982-2.8997,3.4594-4.7802,7.8034-5.4934,11.98-0.0004375,0.0026,0.0004366,0.0052,0,0.0077-1.1864,1.5497-1.69,3.3966-1.3773,5.5326,1.1212,7.6593,3.2822,14.888,8.1851,16.556,7.1544,2.4339,21.872,1.7858,25.13,0.45826,7.139-2.9093,7.7715-9.2851,8.8914-16.78,0.30555-2.0448-0.14484-3.8412-1.2306-5.3729-0.009-0.0556-0.01849-0.11147-0.02832-0.16734-0.781-4.44-2.847-8.89-5.942-12.37-2.094-0.2174-6.14-3.5764-7.12-5.2237-2.152-0.921-4.522-1.4428-7.075-1.4428-0.08532,0-0.17004-0.00119-0.25487,0z" stroke="#c4a000" stroke-dasharray="none" stroke-miterlimit="4" stroke-width="1" fill="url(#radialGradient7666)"/>
  <path id="path7668" opacity="0.66666667" d="M43.63,22.793c-4.597,16.44-33.192,18.01-39.847,0.249-0.0422,16.324,6.3197,21.042,24.407,20.205,3.062-0.14069,10.01,0.04287,14.614-9.1368,2.2384-11.51,0.82525-11.318,0.82525-11.318z" fill-rule="evenodd" fill="url(#radialGradient8549)"/>
  <path id="path8553" fill-rule="evenodd" fill="url(#radialGradient9434)" d="m34.692,7.6783,2.5009,1.1254s-1.3104,10.123-6.669,16.485c1.7717-6.4558,4.189-17.61,4.1681-17.61z"/>
  <path id="path9436" fill-rule="evenodd" fill="url(#radialGradient10317)" d="m15.872,4.1562c1.5005,9.0657,6.5023,19.486,6.0021,20.007-4.5849-6.9816-6.5023-12.921-8.0028-17.923,0-0.083363,2.0007-2.0632,2.0007-2.0841z"/>
  <path id="path10319" fill-rule="evenodd" fill="url(#radialGradient11208)" d="M30.211,3.8228c-4.085,16.506-4.252,19.257-4.252,19.257s6.3356-16.756,6.3356-17.173c0-8E-7-1.5839-1.5005-2.0841-2.0841z"/>
  <flowRoot id="flowRoot12974" xml:space="preserve"><flowRegion id="flowRegion12976"><rect id="rect12978" y="412.8" width="40.056" x="86.788" height="16.022"/></flowRegion><flowPara id="flowPara12980"/></flowRoot>
  <path id="path13014" fill-rule="evenodd" fill="url(#radialGradient13895)" d="m16.182,34.476-0.04467-9.5697,14.494,0,1.6426-1.2635-16.931,0,0.04467,10.641,0.79513,0.19271z"/>
  <path id="path13897" fill-rule="evenodd" fill="#958401" d="m31.043,24.817,0.08168,9.8046,0.68614-0.21474,0.01198-10.853-0.7798,1.2635z"/>
  <path id="path16526" fill-rule="evenodd" fill="url(#radialGradient2798)" d="m4.2551,24.106s2.3167,8.1157,10.221,8.766c1.1056,2.4904-1.135,4.1246-1.135,4.1246l-3.6094-0.251s-6.2388-7.9929-6.4882-9.9009c-0.24943-1.9079,0.16328-3.4078,0.16328-3.4078l0.84847,0.6691z"/>
  <path id="path2703" opacity="0.74444442" d="M23.184,2.389c-2.614,0.0367-4.984,0.67-7.088,1.7342-1.03,2.0287-4.422,4.4403-5.813,4.6969-2.7337,3.2619-4.5065,7.3569-5.179,11.295-0.0004124,0.0024,0.0004116,0.0049,0,0.0073-1.1185,1.4611-1.8585,3.2465-1.5637,5.2602,1.057,7.2211,2.9276,13.71,7.328,15.639,5.9231,2.5976,21.54,1.7859,24.611,0.5343,6.7306-2.7429,7.0617-8.9307,8.1176-15.997,0.28807-1.9279-0.13655-3.6215-1.1602-5.0656-0.0084-0.05242-0.01743-0.1051-0.0267-0.15777-0.737-4.183-2.684-8.379-5.603-11.66-1.974-0.205-5.788-3.3717-6.712-4.9248-2.029-0.8683-4.263-1.3603-6.671-1.3603-0.08044,0-0.16031-0.00112-0.24029,0z" stroke="#FFF" stroke-miterlimit="4" stroke-dasharray="none" stroke-width="0.99999976" fill="none"/>
  <path id="path2800" opacity="0.59444442" fill="url(#radialGradient2813)" d="m22.594,2.7812c-2.3296,0.11657-4.441,0.72504-6.3438,1.6875-1.0107,1.9903-4.3547,4.3732-5.7188,4.625-2.6821,3.1996-4.4028,7.1994-5.0625,11.062-0.0004046,0.0024,0.0004038,0.02888,0,0.03125-1.0973,1.4334-1.458,3.5911-1.458,3.5911,4.6853,3.6051,7.6416,0.21389,14.319-2.0172,12.599,1.9231,18.748-0.99594,22.514-5.6677,0.0069-0.0085-0.0035-0.02088,0-0.03125-0.991-2.582-2.433-5.046-4.282-7.1245-1.936-0.2011-5.687-3.2888-6.593-4.8125-1.991-0.8518-4.169-1.3438-6.531-1.3438-0.07892,1E-7-0.17153-0.0011-0.25,0-0.20035,0.00281-0.39633-0.00988-0.59375,0z"/>
 </g>
</svg>
