<?xml version="1.0" encoding="UTF-8" standalone="no"?>
<!-- Created with Inkscape (http://www.inkscape.org/) -->

<svg
   xmlns:dc="http://purl.org/dc/elements/1.1/"
   xmlns:cc="http://creativecommons.org/ns#"
   xmlns:rdf="http://www.w3.org/1999/02/22-rdf-syntax-ns#"
   xmlns:svg="http://www.w3.org/2000/svg"
   xmlns="http://www.w3.org/2000/svg"
   version="1.1"
   width="48"
   height="48"
   id="svg2984">
  <defs
     id="defs2986" />
  <metadata
     id="metadata2989">
    <rdf:RDF>
      <cc:Work
         rdf:about="">
        <dc:format>image/svg+xml</dc:format>
        <dc:type
           rdf:resource="http://purl.org/dc/dcmitype/StillImage" />
        <dc:title></dc:title>
      </cc:Work>
    </rdf:RDF>
  </metadata>
  <g
     id="layer1">
    <path
       d="M 1.9955621,47.875862 C 1.3452886,47.714018 0.9549981,47.472043 0.58688164,47.002544 0.16455243,46.463886 0.04890786,45.934841 0.17785931,45.131523 0.30871434,44.316324 0.41955433,44.073885 2.8089299,39.376887 3.0167799,38.968289 3.6344125,37.742518 4.1814725,36.652938 4.7285324,35.563355 5.4400004,34.151853 5.7624794,33.516264 6.679523,31.70888 11.514883,22.132622 12.910603,19.359971 c 0.663064,-1.317316 2.171825,-4.301694 2.462125,-4.870091 0.150694,-0.295099 0.994788,-1.966615 1.875839,-3.714481 0.880985,-1.7478669 1.780105,-3.5308147 1.998064,-3.9621104 0.217927,-0.4312888 0.695034,-1.3784824 1.06022,-2.10487 1.811195,-3.6024641 2.015912,-3.92232729 2.768123,-4.32555446 0.570486,-0.30579758 1.251758,-0.29987081 1.81235,0.0157904 0.69014,0.3886538 1.042723,0.92730546 2.502076,3.82277616 0.729963,1.44824 1.461513,2.8931684 1.625702,3.2109654 0.164178,0.3177903 0.616793,1.2092714 1.005801,1.9810552 0.389019,0.7717847 1.038259,2.0532817 1.442726,2.8477647 0.647336,1.271509 5.859296,11.542948 6.240726,12.299053 0.08017,0.158895 0.648553,1.273241 1.263059,2.476321 0.614519,1.203072 1.350946,2.651722 1.63657,3.219215 0.285574,0.567486 0.755372,1.496106 1.043951,2.063598 0.288609,0.567486 0.579962,1.143236 0.647445,1.279432 0.06749,0.136196 0.397364,0.786232 0.733059,1.444518 3.25515,6.383205 4.553263,8.986561 4.668939,9.364614 0.215926,0.704503 0.250307,1.287354 0.105913,1.795663 -0.24861,0.87521 -0.868456,1.447322 -1.81797,1.678034 -0.715834,0.173948 -43.2904119,0.168793 -43.9893515,-0.0056 z m 43.8662629,-0.04598 c 0.842183,-0.177928 1.452299,-0.638781 1.778305,-1.343151 0.124366,-0.268706 0.156739,-0.472922 0.152208,-0.96032 -0.0092,-0.991185 0.04087,-0.874305 -2.58255,-6.025709 -0.682056,-1.339275 -1.652984,-3.252237 -2.157722,-4.251018 -0.504688,-0.998781 -1.136947,-2.243132 -1.405074,-2.765222 -1.055251,-2.055097 -2.54786,-4.998121 -2.909492,-5.736807 -0.04446,-0.0908 -0.214474,-0.425097 -0.377806,-0.742894 C 37.269321,23.883216 36.499693,22.369275 35.023852,19.442515 34.60033,18.602629 34.082123,17.58115 33.872296,17.172559 33.662445,16.76396 33.208588,15.872485 32.863686,15.191502 32.518826,14.510512 31.774175,13.043295 31.208907,11.931014 30.64365,10.818736 29.96528,9.4815261 29.701471,8.9594302 25.934675,1.5074424 25.963466,1.5627518 25.515022,1.0336441 c -0.940081,-1.10699995 -2.30341,-1.04814295 -3.22333,0.139167 -0.18331,0.2365967 -0.655291,1.0733177 -1.048847,1.859383 -0.39355,0.7860586 -1.101461,2.1906337 -1.573156,3.1213201 -0.471695,0.9306863 -1.232108,2.4350493 -1.68984,3.3430296 -0.457719,0.9079882 -1.050064,2.0780472 -1.316395,2.6001352 -0.266291,0.52209 -1.220591,2.416477 -2.12072,4.209748 -0.900131,1.793263 -1.661262,3.297625 -1.691422,3.343028 -0.03017,0.04542 -0.370592,0.714007 -0.756528,1.485791 -0.656427,1.312779 -1.832286,3.651249 -2.1168333,4.209739 -0.069386,0.136198 -0.8567916,1.696279 -1.749794,3.466851 -0.8930084,1.770567 -1.840789,3.646381 -2.1062516,4.168469 -0.2654444,0.522088 -0.9778003,1.933591 -1.5830931,3.136672 -0.6052562,1.20308 -1.6909164,3.357471 -2.4125348,4.787548 -1.57869586,3.128416 -1.75958549,3.530898 -1.87144721,4.16344 -0.25154745,1.422639 0.40305004,2.3974 1.83668391,2.734926 0.5877772,0.138408 43.1183771,0.165253 43.7698071,0.02762 z M 2.0920187,47.075432 C 1.7870186,46.984924 1.4658655,46.762671 1.2282392,46.477673 0.83859335,46.010344 0.79346669,45.258907 1.1091889,44.495295 1.2218047,44.222903 1.8415294,42.959978 2.4863353,41.688803 3.1311716,40.417621 3.7561632,39.17327 3.8752196,38.923575 3.99427,38.673879 4.1357255,38.410946 4.1895551,38.339276 c 0.053824,-0.07167 0.097886,-0.150973 0.097886,-0.176217 0,-0.02525 0.2786295,-0.598065 0.6191834,-1.272914 0.340554,-0.674869 0.8066962,-1.59846 1.0359602,-2.052454 0.2292213,-0.453994 0.8449139,-1.679765 1.3681515,-2.723949 0.5232438,-1.044178 1.1044833,-2.19567 1.2917101,-2.558865 0.1872025,-0.363192 0.7874778,-1.551824 1.3338871,-2.641406 0.5464396,-1.089581 1.1633676,-2.31536 1.3708886,-2.72395 0.727232,-1.431726 1.179343,-2.329223 2.266123,-4.498647 0.602671,-1.203079 1.186617,-2.354565 1.297682,-2.558865 0.111058,-0.204298 0.280642,-0.538595 0.376843,-0.742894 0.196836,-0.417988 1.687608,-3.388844 2.857957,-5.695535 1.095994,-2.1600055 2.112655,-4.1807675 2.345374,-4.6616683 0.109301,-0.2258562 0.371783,-0.7379004 0.583289,-1.137872 0.211506,-0.3999716 0.384544,-0.7451277 0.384544,-0.7670052 0,-0.021912 0.139734,-0.308441 0.310509,-0.6368117 0.170776,-0.3283637 0.444303,-0.8600244 0.607836,-1.1815294 0.532955,-1.0477325 1.214976,-1.53887279 1.89311,-1.36354702 0.67505,0.17458842 0.935258,0.51703872 2.013322,2.64966392 0.172126,0.3404885 0.452635,0.8877592 0.623362,1.2161158 0.170726,0.3283707 0.310412,0.6145169 0.310412,0.6358795 0,0.021355 0.189539,0.4027265 0.421193,0.8474756 0.351026,0.6739235 2.782518,5.4592178 3.577482,7.0407608 0.34739,0.691077 2.253096,4.459267 3.214408,6.35588 0.218603,0.431296 0.857948,1.694214 1.420771,2.806494 0.562812,1.112278 1.129753,2.226625 1.259824,2.47632 0.130088,0.249695 0.325446,0.639719 0.434121,0.866717 0.108675,0.226989 0.369284,0.747019 0.579142,1.15561 0.454422,0.884789 2.269431,4.462739 2.826422,5.571721 0.216614,0.431289 0.612159,1.211329 0.878966,1.733419 0.266843,0.522096 0.566224,1.116411 0.665302,1.320703 0.09907,0.204299 0.502201,1.002914 0.895879,1.774698 0.393641,0.771784 0.797628,1.570398 0.897752,1.774698 0.100126,0.204298 0.344367,0.687174 0.542772,1.073073 1.516072,2.948714 2.218831,4.383082 2.301032,4.696338 0.194446,0.740891 0.06872,1.303368 -0.388186,1.736723 -0.56879,0.539452 1.17733,0.501519 -22.653309,0.492134 C 9.370523,47.16397 2.286817,47.13347 2.0917509,47.07559 z M 39.37629,41.403506 c 0.02907,-0.05398 -0.05784,-0.306215 -0.195205,-0.566387 -0.136214,-0.257986 -0.581678,-1.137705 -0.989892,-1.954886 -0.408244,-0.817188 -0.911283,-1.820093 -1.117801,-2.228692 -0.206562,-0.408589 -0.578205,-1.151484 -0.825915,-1.650875 -0.497178,-1.002412 -2.12072,-4.239212 -2.774029,-5.53045 -0.372616,-0.736488 -0.882559,-1.76066 -1.417961,-2.847764 -0.10061,-0.204299 -0.547005,-1.095773 -0.991976,-1.981055 -1.09707,-2.182627 -5.802792,-11.594954 -6.43724,-12.876034 -0.280873,-0.567026 -0.558689,-1.040304 -0.617359,-1.051775 -0.07101,-0.01384 -0.413985,0.593135 -1.02567,1.815142 -0.505424,1.009758 -1.181502,2.35597 -1.502321,2.991557 -0.692919,1.372542 -1.9335,3.838873 -3.051806,6.06698 -0.444309,0.88529 -1.172435,2.333934 -1.617996,3.219216 -0.44558,0.885283 -1.118162,2.2225 -1.494628,2.971586 -0.765955,1.524091 -1.517659,3.017477 -2.139866,4.251012 -0.228978,0.453993 -0.659286,1.308321 -0.956203,1.898511 -0.296937,0.590191 -0.783732,1.555958 -1.081811,2.146142 -0.298049,0.59019 -0.904089,1.797395 -1.3467739,2.682684 -0.4426548,0.885284 -0.9199935,1.832226 -1.0607192,2.104377 -0.1407257,0.272108 -0.2457212,0.513553 -0.2333448,0.53653 0.012407,0.02296 6.9532769,0.05523 15.4242059,0.07162 11.771857,0.02282 15.414123,0.007 15.454433,-0.06748 z m -18.728156,-1.05574 c -0.246335,-0.04959 -0.573765,-0.45046 -0.659779,-0.807727 -0.10373,-0.430789 -0.03242,-0.706194 0.505345,-1.951171 0.727876,-1.685219 1.42948,-3.386368 1.42948,-3.46594 0,-0.06748 -0.271434,-0.461765 -1.689547,-2.4542 l -0.433891,-0.609591 -0.04026,1.641386 c -0.0281,1.1467 -0.07517,1.778245 -0.156125,2.095376 -0.06374,0.249695 -0.316835,1.364041 -0.562434,2.47632 -0.526905,2.386265 -0.519382,2.361006 -0.802737,2.697948 -0.387876,0.461186 -1.029696,0.464809 -1.419116,0.008 -0.38244,-0.448568 -0.369194,-0.664122 0.202825,-3.30052 l 0.510436,-2.352506 v -2.617797 c 0,-1.76322 0.02621,-2.676655 0.0803,-2.798076 0.04415,-0.09917 0.225055,-0.351911 0.40198,-0.561663 l 0.321682,-0.381358 -0.183109,-0.209981 c -0.100711,-0.115481 -0.203192,-0.301728 -0.227738,-0.41387 -0.02511,-0.114639 -0.246968,-0.389844 -0.506798,-0.62861 -0.379167,-0.348433 -0.462171,-0.46822 -0.462171,-0.667009 0,-0.155084 0.05011,-0.273069 0.139235,-0.327759 0.204505,-0.125504 0.240151,-0.113297 0.60699,0.20791 0.228801,0.200333 0.34413,0.259231 0.363713,0.185725 0.01575,-0.0592 0.161598,-0.793495 0.324061,-1.631809 0.316828,-1.634785 0.495911,-2.094387 0.862124,-2.212511 0.102983,-0.03325 1.197772,-0.05983 2.432903,-0.05913 2.155703,0.0014 2.253741,0.008 2.447372,0.171847 0.250008,0.21138 1.815738,2.719658 2.076596,3.326523 0.344246,0.801035 0.35335,0.767889 -0.955121,3.475262 -0.500401,1.035351 -0.890844,1.860544 -1.044743,2.207725 -0.14185,0.320086 -0.145208,0.359424 -0.03868,0.453993 0.06413,0.05698 0.917907,0.846405 1.897216,1.754386 0.979308,0.907988 2.024768,1.874241 2.323206,2.147304 l 0.542571,0.496378 0.277,-0.344607 c 0.56334,-0.700831 1.476632,-0.930603 2.141957,-0.538833 0.340931,0.200737 0.806551,0.72677 0.979309,1.106423 0.09437,0.207345 0.127577,0.221307 0.417956,0.175667 0.604016,-0.09493 1.125003,0.437667 1.266447,1.294701 0.04093,0.247781 0.114221,0.46577 0.162936,0.48442 0.04872,0.01865 0.197085,0.157942 0.32971,0.309539 0.132625,0.151599 0.294588,0.275845 0.359906,0.276103 0.256249,6.95e-4 0.664924,0.181357 0.879039,0.387957 0.219503,0.211798 0.607354,0.836004 0.556019,0.894938 -0.133514,0.153101 -12.221749,0.09803 -12.221749,-0.05565 0,-0.03994 0.153862,-0.254545 0.341916,-0.47695 0.354968,-0.419818 0.855861,-0.668143 1.347783,-0.668143 0.204439,0 0.231448,-0.03221 0.310183,-0.369774 0.0913,-0.3915 0.41331,-0.716052 0.824113,-0.830725 0.109795,-0.03061 0.258639,-0.169622 0.336875,-0.314563 0.175136,-0.324489 0.482685,-0.65704 0.754004,-0.815289 l 0.207832,-0.121233 -2.007344,-1.840893 c -1.104058,-1.012486 -2.116044,-1.949028 -2.248851,-2.081101 -0.33449,-0.332606 -0.373018,-0.220917 -0.06057,0.175645 0.571807,0.725805 0.580151,1.067462 0.05558,2.276733 -0.892499,2.057406 -2.103874,4.62989 -2.256837,4.792583 -0.297726,0.316581 -0.681935,0.460103 -1.039122,0.388155 z m 2.483868,-11.28871 c 0.15815,-0.317797 0.279031,-0.588417 0.268619,-0.601383 -0.02335,-0.02908 -1.778445,0.81446 -1.860506,0.894199 -0.03254,0.03166 0.174485,0.265682 0.460048,0.520135 l 0.519217,0.462633 0.162536,-0.34889 c 0.0894,-0.191889 0.29193,-0.608904 0.45008,-0.926723 z m -2.504454,-3.631937 0.753212,-0.866711 h -0.611203 -0.611211 l -0.130988,0.680984 c -0.07204,0.374547 -0.148134,0.764564 -0.169104,0.866716 -0.02098,0.102148 -0.02591,0.185719 -0.01107,0.185719 0.0149,0 0.366042,-0.390017 0.780356,-0.866708 z m 5.897234,-0.369581 c -0.988237,-0.599087 -1.225346,-2.068391 -0.477534,-2.958793 0.805109,-0.958581 2.170384,-0.693623 2.672026,0.518527 0.145202,0.350881 0.146977,1.114672 0.0036,1.512453 -0.129529,0.359166 -0.539591,0.818523 -0.873498,0.978476 -0.340049,0.162937 -1.014722,0.137114 -1.324533,-0.05072 z"
       id="path4469"
       style="fill:#006000" />
  </g>
</svg>
