<?xml version="1.0" encoding="UTF-8" standalone="no"?>
<!-- Created with Inkscape (http://www.inkscape.org/) -->
<svg id="svg2985" xmlns:rdf="http://www.w3.org/1999/02/22-rdf-syntax-ns#" xmlns="http://www.w3.org/2000/svg" height="48px" width="48px" version="1.1" xmlns:cc="http://creativecommons.org/ns#" xmlns:dc="http://purl.org/dc/elements/1.1/">
 <defs id="defs2987"></defs>
 <metadata id="metadata2990">
  <rdf:RDF>
   <cc:Work rdf:about="">
    <dc:format>image/svg+xml</dc:format>
    <dc:type rdf:resource="http://purl.org/dc/dcmitype/StillImage"/>
    <dc:title/>
   </cc:Work>
  </rdf:RDF>
 </metadata>
 <g id="layer1">
  <g id="layer4" transform="matrix(0.08157573,0,0,0.08488656,-0.40022357,-4.0276145)">
   <g id="g43050" stroke-linejoin="miter" fill-rule="evenodd" transform="matrix(2.3735718,0,0,2.3742245,-87.82162,-193.1712)" stroke="#000" stroke-linecap="butt" stroke-dasharray="none" stroke-miterlimit="4" fill="#5ab532">
    <g id="g39964" transform="matrix(0.3340073,0,0,0.4462143,-181.97814,149.08285)" stroke-width="2.18231893">
     <path id="path39966" d="m873.98,240.53c-4.6716,0.29963-1.482,1.5316-1.9381,8.4032-0.48404,7.293,8.1378,18.805,1.9788,38.298-6.7554,0-14.65,1.686-17.025-2.4209-2.3652-4.0907-3.0535-9.4959-3.0535-14.776-11.947,0.00062-19.141-13.828-19.859-19.859-1.0111-2.0222-4.9264-5.7043-9.3276-9.5294-15.325-2.0536-12.733-9.6776-14.142-12.135-10.911-10.911-6.5398-15.125,0-21.665,1.0194-1.0194,1.4774-6.4068,1.6774-12.152-9.3181-6.325-3.3165-13.084,0.12794-14.928,0-3.8578,1.9468-7.1887,4.6972-10.173,3.3474-3.6327,7.8849-6.7526,11.551-9.6857-12.414-6.7076-0.95163-12.006-0.27196-15.806,0.78899-7.5928,4.1929-9.1977,14.266-4.093,1.9804,1.0036,4.7649,0.15155,7.6709,0.0395,5.2656-0.20295-3.7563-10.748,7.8191-13.151,5.4772-1.137,0.98092-11.671,3.0132-15.735-1.0086-4.2839-9.097-12.257,5.6587-13.342,2.2844-6.0269,4.3079-12.081,5.1736-15.544,1.4946-7.0891,6.8639-10.745,10.644,0.74443,3.8064,2.187,7.9018,4.6717,11.021,4.6717,15.327-6.8032,10.925,2.1647,21.665,7.2215,0.52178,0,4.9776,2.6735,9.7762,5.5865,4.8463,2.9419,10.042,6.1281,11.888,7.0511,1.2953,0.6389,10.172,0.93516,3.9222,12.038,4.2788,4.5882,3.4258,9.2347,1.494,11.432-0.0656,0.0747,7.2392,1.6673,11.484,6.5982,1.7352,2.0157,2.959,4.5892,2.959,7.8448,0.22852,12.66,10.013,14.259,7.2215,34.302,0,12.865-2.3224,18.567,1.8054,28.886,3.3292,8.3229-9.1957,10.495-1.8054,25.275,8.1894,6.7711-8.0018,22.49-14.443,23.47-8.5019,8.5019-0.002,13.438-5.5196,15.339-1.777,0.61212-5.0078,0.90933-10.729,0.90933-8.2485,9.4705-10.23,17.528-21.665,1.8054-6.0037,16.758-13.378-7.3476-14.224,2.7534-18.838-3.3373-13.814-17.105-10.223-27.289,1.5457-4.3838-1.0808-13.576-5.9152-12.968-0.97396,0.12256,1.2476,2.2393,0.34643,2.3009"/>
     <path id="path39968" d="m863.87,414.47c-7.666-1.8146,9.9098,2.9486,11.735-19.859,0.63203-7.898-0.43871-18.518,0-30.691,0.27189-7.5445,3.6108-27.865,3.6108-34.302,0-12.638-1.8054-25.275-1.8054-37.913v-32.497c0-15.836-3.1381-16.163-7.6729-26.178-2.704-5.2742-9.051-12.213-13.696-17.847-3.6777-4.4615-5.8672-8.1057-7.2918-9.4591-10.212-3.6398-15.823-18.349-13.779-18.518,0.67285-0.0558,1.0224,1.3904,3.3984,5.2038,1.6057,6.4228,10.416,8.6104,17.377,16.248,2.9487,6.3338,13.573,18.087,18.731,23.244,3.6264-11.945,2.9337-16.689,2.9337-26.855v-27.081-28.886c0-10.084,1.7251-16.088,5.4161-23.47,6.1337-12.267,3.3851-3.8431,0,7.2215-2.895,6.6751-3.6493,17.306-1.9687,17.788,0.61079,0.17511,2.7193-4.0958,5.5794-6.9559,7.8518-7.8518,10.953-7.2215,23.47-7.2215,17.922,0-10.056,0.62745-15.571,3.3851-8.9715,4.4857-7.7125,8.8408-12.412,13.54-2.781,2.781-0.90269,28.899-0.90269,33.625,0,12.702-0.60858,19.476,2.2567,26.404,1.5163-0.41608,5.9637,1.1143,10.453-0.39475,8.6184-2.8968,19.21-9.7227,22.269-12.017,4.7155-3.5366,9.997-9.3874,15.12-22.793,2.1226-4.2452,3.5136-7.4033,3.7519-6.7381,0.49766,1.3893-3.8705,10.146-5.1059,15.088-0.0669,0.26765-7.7295,13.597-14.443,18.505-2.7683,2.7683,22.353-6.7597,22.441-1.5849,0.0179,1.0506-5.7351-0.45226-8.2236,2.0362-18.209,1.9609-33.052,12.186-38.59,12.186-8.1557-2.4824-9.3175,6.7816-9.7039,11.284,0.0563,9.2972-0.31635,11.722,5.4161,30.24-2.724,4.8566-0.62885,25.058-0.22567,29.789,0,10.832,3.6108,20.762,3.6108,31.594v32.497,32.497c0,10.832,5.3814,23.657,13.54,32.497-18.063,3.6206-25.594-5.2569-39.718-3.6108z"/>
    </g>
    <g id="g39934" transform="matrix(0.448599,0,0,0.5993021,-260.774,84.71625)" stroke-width="1.62485969">
     <path id="path39936" d="m873.98,240.53c-4.6716,0.29963-1.482,1.5316-1.9381,8.4032-0.48404,7.293,8.1378,18.805,1.9788,38.298-6.7554,0-14.65,1.686-17.025-2.4209-2.3652-4.0907-3.0535-9.4959-3.0535-14.776-11.947,0.00062-19.141-13.828-19.859-19.859-1.0111-2.0222-4.9264-5.7043-9.3276-9.5294-15.325-2.0536-12.733-9.6776-14.142-12.135-10.911-10.911-6.5398-15.125,0-21.665,1.0194-1.0194,1.4774-6.4068,1.6774-12.152-9.3181-6.325-3.3165-13.084,0.12794-14.928,0-3.8578,1.9468-7.1887,4.6972-10.173,3.3474-3.6327,7.8849-6.7526,11.551-9.6857-12.414-6.7076-0.95163-12.006-0.27196-15.806,0.78899-7.5928,4.1929-9.1977,14.266-4.093,1.9804,1.0036,4.7649,0.15155,7.6709,0.0395,5.2656-0.20295-3.7563-10.748,7.8191-13.151,5.4772-1.137,0.98092-11.671,3.0132-15.735-1.0086-4.2839-9.097-12.257,5.6587-13.342,2.2844-6.0269,4.3079-12.081,5.1736-15.544,1.4946-7.0891,6.8639-10.745,10.644,0.74443,3.8064,2.187,7.9018,4.6717,11.021,4.6717,15.327-6.8032,10.925,2.1647,21.665,7.2215,0.52178,0,4.9776,2.6735,9.7762,5.5865,4.8463,2.9419,10.042,6.1281,11.888,7.0511,1.2953,0.6389,10.172,0.93516,3.9222,12.038,4.2788,4.5882,3.4258,9.2347,1.494,11.432-0.0656,0.0747,7.2392,1.6673,11.484,6.5982,1.7352,2.0157,2.959,4.5892,2.959,7.8448,0.22852,12.66,10.013,14.259,7.2215,34.302,0,12.865-2.3224,18.567,1.8054,28.886,3.3292,8.3229-9.1957,10.495-1.8054,25.275,8.1894,6.7711-8.0018,22.49-14.443,23.47-8.5019,8.5019-0.002,13.438-5.5196,15.339-1.777,0.61212-5.0078,0.90933-10.729,0.90933-8.2485,9.4705-10.23,17.528-21.665,1.8054-6.0037,16.758-13.378-7.3476-14.224,2.7534-18.838-3.3373-13.814-17.105-10.223-27.289,1.5457-4.3838-1.0808-13.576-5.9152-12.968-0.97396,0.12256,1.2476,2.2393,0.34643,2.3009"/>
     <path id="path39938" d="m863.87,414.47c-7.666-1.8146,9.9098,2.9486,11.735-19.859,0.63203-7.898-0.43871-18.518,0-30.691,0.27189-7.5445,3.6108-27.865,3.6108-34.302,0-12.638-1.8054-25.275-1.8054-37.913v-32.497c0-15.836-3.1381-16.163-7.6729-26.178-2.704-5.2742-9.051-12.213-13.696-17.847-3.6777-4.4615-5.8672-8.1057-7.2918-9.4591-10.212-3.6398-15.823-18.349-13.779-18.518,0.67285-0.0558,1.0224,1.3904,3.3984,5.2038,1.6057,6.4228,10.416,8.6104,17.377,16.248,2.9487,6.3338,13.573,18.087,18.731,23.244,3.6264-11.945,2.9337-16.689,2.9337-26.855v-27.081-28.886c0-10.084,1.7251-16.088,5.4161-23.47,6.1337-12.267,3.3851-3.8431,0,7.2215-2.895,6.6751-3.6493,17.306-1.9687,17.788,0.61079,0.17511,2.7193-4.0958,5.5794-6.9559,7.8518-7.8518,10.953-7.2215,23.47-7.2215,17.922,0-10.056,0.62745-15.571,3.3851-8.9715,4.4857-7.7125,8.8408-12.412,13.54-2.781,2.781-0.90269,28.899-0.90269,33.625,0,12.702-0.60858,19.476,2.2567,26.404,1.5163-0.41608,5.9637,1.1143,10.453-0.39475,8.6184-2.8968,19.21-9.7227,22.269-12.017,4.7155-3.5366,9.997-9.3874,15.12-22.793,2.1226-4.2452,3.5136-7.4033,3.7519-6.7381,0.49766,1.3893-3.8705,10.146-5.1059,15.088-0.0669,0.26765-7.7295,13.597-14.443,18.505-2.7683,2.7683,22.353-6.7597,22.441-1.5849,0.0179,1.0506-5.7351-0.45226-8.2236,2.0362-18.209,1.9609-33.052,12.186-38.59,12.186-8.1557-2.4824-9.3175,6.7816-9.7039,11.284,0.0563,9.2972-0.31635,11.722,5.4161,30.24-2.724,4.8566-0.62885,25.058-0.22567,29.789,0,10.832,3.6108,20.762,3.6108,31.594v32.497,32.497c0,10.832,5.3814,23.657,13.54,32.497-18.063,3.6206-25.594-5.2569-39.718-3.6108z"/>
    </g>
    <g id="g39940" transform="matrix(0.448599,0,0,0.5993021,-310.37983,84.71625)" stroke-width="1.62485969">
     <path id="path39942" d="m873.98,240.53c-4.6716,0.29963-1.482,1.5316-1.9381,8.4032-0.48404,7.293,8.1378,18.805,1.9788,38.298-6.7554,0-14.65,1.686-17.025-2.4209-2.3652-4.0907-3.0535-9.4959-3.0535-14.776-11.947,0.00062-19.141-13.828-19.859-19.859-1.0111-2.0222-4.9264-5.7043-9.3276-9.5294-15.325-2.0536-12.733-9.6776-14.142-12.135-10.911-10.911-6.5398-15.125,0-21.665,1.0194-1.0194,1.4774-6.4068,1.6774-12.152-9.3181-6.325-3.3165-13.084,0.12794-14.928,0-3.8578,1.9468-7.1887,4.6972-10.173,3.3474-3.6327,7.8849-6.7526,11.551-9.6857-12.414-6.7076-0.95163-12.006-0.27196-15.806,0.78899-7.5928,4.1929-9.1977,14.266-4.093,1.9804,1.0036,4.7649,0.15155,7.6709,0.0395,5.2656-0.20295-3.7563-10.748,7.8191-13.151,5.4772-1.137,0.98092-11.671,3.0132-15.735-1.0086-4.2839-9.097-12.257,5.6587-13.342,2.2844-6.0269,4.3079-12.081,5.1736-15.544,1.4946-7.0891,6.8639-10.745,10.644,0.74443,3.8064,2.187,7.9018,4.6717,11.021,4.6717,15.327-6.8032,10.925,2.1647,21.665,7.2215,0.52178,0,4.9776,2.6735,9.7762,5.5865,4.8463,2.9419,10.042,6.1281,11.888,7.0511,1.2953,0.6389,10.172,0.93516,3.9222,12.038,4.2788,4.5882,3.4258,9.2347,1.494,11.432-0.0656,0.0747,7.2392,1.6673,11.484,6.5982,1.7352,2.0157,2.959,4.5892,2.959,7.8448,0.22852,12.66,10.013,14.259,7.2215,34.302,0,12.865-2.3224,18.567,1.8054,28.886,3.3292,8.3229-9.1957,10.495-1.8054,25.275,8.1894,6.7711-8.0018,22.49-14.443,23.47-8.5019,8.5019-0.002,13.438-5.5196,15.339-1.777,0.61212-5.0078,0.90933-10.729,0.90933-8.2485,9.4705-10.23,17.528-21.665,1.8054-6.0037,16.758-13.378-7.3476-14.224,2.7534-18.838-3.3373-13.814-17.105-10.223-27.289,1.5457-4.3838-1.0808-13.576-5.9152-12.968-0.97396,0.12256,1.2476,2.2393,0.34643,2.3009"/>
     <path id="path39944" d="m863.87,414.47c-7.666-1.8146,9.9098,2.9486,11.735-19.859,0.63203-7.898-0.43871-18.518,0-30.691,0.27189-7.5445,3.6108-27.865,3.6108-34.302,0-12.638-1.8054-25.275-1.8054-37.913v-32.497c0-15.836-3.1381-16.163-7.6729-26.178-2.704-5.2742-9.051-12.213-13.696-17.847-3.6777-4.4615-5.8672-8.1057-7.2918-9.4591-10.212-3.6398-15.823-18.349-13.779-18.518,0.67285-0.0558,1.0224,1.3904,3.3984,5.2038,1.6057,6.4228,10.416,8.6104,17.377,16.248,2.9487,6.3338,13.573,18.087,18.731,23.244,3.6264-11.945,2.9337-16.689,2.9337-26.855v-27.081-28.886c0-10.084,1.7251-16.088,5.4161-23.47,6.1337-12.267,3.3851-3.8431,0,7.2215-2.895,6.6751-3.6493,17.306-1.9687,17.788,0.61079,0.17511,2.7193-4.0958,5.5794-6.9559,7.8518-7.8518,10.953-7.2215,23.47-7.2215,17.922,0-10.056,0.62745-15.571,3.3851-8.9715,4.4857-7.7125,8.8408-12.412,13.54-2.781,2.781-0.90269,28.899-0.90269,33.625,0,12.702-0.60858,19.476,2.2567,26.404,1.5163-0.41608,5.9637,1.1143,10.453-0.39475,8.6184-2.8968,19.21-9.7227,22.269-12.017,4.7155-3.5366,9.997-9.3874,15.12-22.793,2.1226-4.2452,3.5136-7.4033,3.7519-6.7381,0.49766,1.3893-3.8705,10.146-5.1059,15.088-0.0669,0.26765-7.7295,13.597-14.443,18.505-2.7683,2.7683,22.353-6.7597,22.441-1.5849,0.0179,1.0506-5.7351-0.45226-8.2236,2.0362-18.209,1.9609-33.052,12.186-38.59,12.186-8.1557-2.4824-9.3175,6.7816-9.7039,11.284,0.0563,9.2972-0.31635,11.722,5.4161,30.24-2.724,4.8566-0.62885,25.058-0.22567,29.789,0,10.832,3.6108,20.762,3.6108,31.594v32.497,32.497c0,10.832,5.3814,23.657,13.54,32.497-18.063,3.6206-25.594-5.2569-39.718-3.6108z"/>
    </g>
    <g id="g39976" transform="matrix(0.294251,0,0,0.3931022,-52.602962,171.41413)" stroke-width="2.47717214">
     <path id="path39978" d="m873.98,240.53c-4.6716,0.29963-1.482,1.5316-1.9381,8.4032-0.48404,7.293,8.1378,18.805,1.9788,38.298-6.7554,0-14.65,1.686-17.025-2.4209-2.3652-4.0907-3.0535-9.4959-3.0535-14.776-11.947,0.00062-19.141-13.828-19.859-19.859-1.0111-2.0222-4.9264-5.7043-9.3276-9.5294-15.325-2.0536-12.733-9.6776-14.142-12.135-10.911-10.911-6.5398-15.125,0-21.665,1.0194-1.0194,1.4774-6.4068,1.6774-12.152-9.3181-6.325-3.3165-13.084,0.12794-14.928,0-3.8578,1.9468-7.1887,4.6972-10.173,3.3474-3.6327,7.8849-6.7526,11.551-9.6857-12.414-6.7076-0.95163-12.006-0.27196-15.806,0.78899-7.5928,4.1929-9.1977,14.266-4.093,1.9804,1.0036,4.7649,0.15155,7.6709,0.0395,5.2656-0.20295-3.7563-10.748,7.8191-13.151,5.4772-1.137,0.98092-11.671,3.0132-15.735-1.0086-4.2839-9.097-12.257,5.6587-13.342,2.2844-6.0269,4.3079-12.081,5.1736-15.544,1.4946-7.0891,6.8639-10.745,10.644,0.74443,3.8064,2.187,7.9018,4.6717,11.021,4.6717,15.327-6.8032,10.925,2.1647,21.665,7.2215,0.52178,0,4.9776,2.6735,9.7762,5.5865,4.8463,2.9419,10.042,6.1281,11.888,7.0511,1.2953,0.6389,10.172,0.93516,3.9222,12.038,4.2788,4.5882,3.4258,9.2347,1.494,11.432-0.0656,0.0747,7.2392,1.6673,11.484,6.5982,1.7352,2.0157,2.959,4.5892,2.959,7.8448,0.22852,12.66,10.013,14.259,7.2215,34.302,0,12.865-2.3224,18.567,1.8054,28.886,3.3292,8.3229-9.1957,10.495-1.8054,25.275,8.1894,6.7711-8.0018,22.49-14.443,23.47-8.5019,8.5019-0.002,13.438-5.5196,15.339-1.777,0.61212-5.0078,0.90933-10.729,0.90933-8.2485,9.4705-10.23,17.528-21.665,1.8054-6.0037,16.758-13.378-7.3476-14.224,2.7534-18.838-3.3373-13.814-17.105-10.223-27.289,1.5457-4.3838-1.0808-13.576-5.9152-12.968-0.97396,0.12256,1.2476,2.2393,0.34643,2.3009"/>
     <path id="path39980" d="m863.87,414.47c-7.666-1.8146,9.9098,2.9486,11.735-19.859,0.63203-7.898-0.43871-18.518,0-30.691,0.27189-7.5445,3.6108-27.865,3.6108-34.302,0-12.638-1.8054-25.275-1.8054-37.913v-32.497c0-15.836-3.1381-16.163-7.6729-26.178-2.704-5.2742-9.051-12.213-13.696-17.847-3.6777-4.4615-5.8672-8.1057-7.2918-9.4591-10.212-3.6398-15.823-18.349-13.779-18.518,0.67285-0.0558,1.0224,1.3904,3.3984,5.2038,1.6057,6.4228,10.416,8.6104,17.377,16.248,2.9487,6.3338,13.573,18.087,18.731,23.244,3.6264-11.945,2.9337-16.689,2.9337-26.855v-27.081-28.886c0-10.084,1.7251-16.088,5.4161-23.47,6.1337-12.267,3.3851-3.8431,0,7.2215-2.895,6.6751-3.6493,17.306-1.9687,17.788,0.61079,0.17511,2.7193-4.0958,5.5794-6.9559,7.8518-7.8518,10.953-7.2215,23.47-7.2215,17.922,0-10.056,0.62745-15.571,3.3851-8.9715,4.4857-7.7125,8.8408-12.412,13.54-2.781,2.781-0.90269,28.899-0.90269,33.625,0,12.702-0.60858,19.476,2.2567,26.404,1.5163-0.41608,5.9637,1.1143,10.453-0.39475,8.6184-2.8968,19.21-9.7227,22.269-12.017,4.7155-3.5366,9.997-9.3874,15.12-22.793,2.1226-4.2452,3.5136-7.4033,3.7519-6.7381,0.49766,1.3893-3.8705,10.146-5.1059,15.088-0.0669,0.26765-7.7295,13.597-14.443,18.505-2.7683,2.7683,22.353-6.7597,22.441-1.5849,0.0179,1.0506-5.7351-0.45226-8.2236,2.0362-18.209,1.9609-33.052,12.186-38.59,12.186-8.1557-2.4824-9.3175,6.7816-9.7039,11.284,0.0563,9.2972-0.31635,11.722,5.4161,30.24-2.724,4.8566-0.62885,25.058-0.22567,29.789,0,10.832,3.6108,20.762,3.6108,31.594v32.497,32.497c0,10.832,5.3814,23.657,13.54,32.497-18.063,3.6206-25.594-5.2569-39.718-3.6108z"/>
    </g>
    <g id="g39946" transform="matrix(0.448599,0,0,0.5993021,-161.56233,84.71625)" stroke-width="1.62485969">
     <path id="path39948" d="m873.98,240.53c-4.6716,0.29963-1.482,1.5316-1.9381,8.4032-0.48404,7.293,8.1378,18.805,1.9788,38.298-6.7554,0-14.65,1.686-17.025-2.4209-2.3652-4.0907-3.0535-9.4959-3.0535-14.776-11.947,0.00062-19.141-13.828-19.859-19.859-1.0111-2.0222-4.9264-5.7043-9.3276-9.5294-15.325-2.0536-12.733-9.6776-14.142-12.135-10.911-10.911-6.5398-15.125,0-21.665,1.0194-1.0194,1.4774-6.4068,1.6774-12.152-9.3181-6.325-3.3165-13.084,0.12794-14.928,0-3.8578,1.9468-7.1887,4.6972-10.173,3.3474-3.6327,7.8849-6.7526,11.551-9.6857-12.414-6.7076-0.95163-12.006-0.27196-15.806,0.78899-7.5928,4.1929-9.1977,14.266-4.093,1.9804,1.0036,4.7649,0.15155,7.6709,0.0395,5.2656-0.20295-3.7563-10.748,7.8191-13.151,5.4772-1.137,0.98092-11.671,3.0132-15.735-1.0086-4.2839-9.097-12.257,5.6587-13.342,2.2844-6.0269,4.3079-12.081,5.1736-15.544,1.4946-7.0891,6.8639-10.745,10.644,0.74443,3.8064,2.187,7.9018,4.6717,11.021,4.6717,15.327-6.8032,10.925,2.1647,21.665,7.2215,0.52178,0,4.9776,2.6735,9.7762,5.5865,4.8463,2.9419,10.042,6.1281,11.888,7.0511,1.2953,0.6389,10.172,0.93516,3.9222,12.038,4.2788,4.5882,3.4258,9.2347,1.494,11.432-0.0656,0.0747,7.2392,1.6673,11.484,6.5982,1.7352,2.0157,2.959,4.5892,2.959,7.8448,0.22852,12.66,10.013,14.259,7.2215,34.302,0,12.865-2.3224,18.567,1.8054,28.886,3.3292,8.3229-9.1957,10.495-1.8054,25.275,8.1894,6.7711-8.0018,22.49-14.443,23.47-8.5019,8.5019-0.002,13.438-5.5196,15.339-1.777,0.61212-5.0078,0.90933-10.729,0.90933-8.2485,9.4705-10.23,17.528-21.665,1.8054-6.0037,16.758-13.378-7.3476-14.224,2.7534-18.838-3.3373-13.814-17.105-10.223-27.289,1.5457-4.3838-1.0808-13.576-5.9152-12.968-0.97396,0.12256,1.2476,2.2393,0.34643,2.3009"/>
     <path id="path39950" d="m863.87,414.47c-7.666-1.8146,9.9098,2.9486,11.735-19.859,0.63203-7.898-0.43871-18.518,0-30.691,0.27189-7.5445,3.6108-27.865,3.6108-34.302,0-12.638-1.8054-25.275-1.8054-37.913v-32.497c0-15.836-3.1381-16.163-7.6729-26.178-2.704-5.2742-9.051-12.213-13.696-17.847-3.6777-4.4615-5.8672-8.1057-7.2918-9.4591-10.212-3.6398-15.823-18.349-13.779-18.518,0.67285-0.0558,1.0224,1.3904,3.3984,5.2038,1.6057,6.4228,10.416,8.6104,17.377,16.248,2.9487,6.3338,13.573,18.087,18.731,23.244,3.6264-11.945,2.9337-16.689,2.9337-26.855v-27.081-28.886c0-10.084,1.7251-16.088,5.4161-23.47,6.1337-12.267,3.3851-3.8431,0,7.2215-2.895,6.6751-3.6493,17.306-1.9687,17.788,0.61079,0.17511,2.7193-4.0958,5.5794-6.9559,7.8518-7.8518,10.953-7.2215,23.47-7.2215,17.922,0-10.056,0.62745-15.571,3.3851-8.9715,4.4857-7.7125,8.8408-12.412,13.54-2.781,2.781-0.90269,28.899-0.90269,33.625,0,12.702-0.60858,19.476,2.2567,26.404,1.5163-0.41608,5.9637,1.1143,10.453-0.39475,8.6184-2.8968,19.21-9.7227,22.269-12.017,4.7155-3.5366,9.997-9.3874,15.12-22.793,2.1226-4.2452,3.5136-7.4033,3.7519-6.7381,0.49766,1.3893-3.8705,10.146-5.1059,15.088-0.0669,0.26765-7.7295,13.597-14.443,18.505-2.7683,2.7683,22.353-6.7597,22.441-1.5849,0.0179,1.0506-5.7351-0.45226-8.2236,2.0362-18.209,1.9609-33.052,12.186-38.59,12.186-8.1557-2.4824-9.3175,6.7816-9.7039,11.284,0.0563,9.2972-0.31635,11.722,5.4161,30.24-2.724,4.8566-0.62885,25.058-0.22567,29.789,0,10.832,3.6108,20.762,3.6108,31.594v32.497,32.497c0,10.832,5.3814,23.657,13.54,32.497-18.063,3.6206-25.594-5.2569-39.718-3.6108z"/>
    </g>
    <g id="g39952" transform="matrix(0.5073287,0,0,0.6777616,-258.29714,51.72753)" stroke-width="1.43676162">
     <path id="path39954" d="m873.98,240.53c-4.6716,0.29963-1.482,1.5316-1.9381,8.4032-0.48404,7.293,8.1378,18.805,1.9788,38.298-6.7554,0-14.65,1.686-17.025-2.4209-2.3652-4.0907-3.0535-9.4959-3.0535-14.776-11.947,0.00062-19.141-13.828-19.859-19.859-1.0111-2.0222-4.9264-5.7043-9.3276-9.5294-15.325-2.0536-12.733-9.6776-14.142-12.135-10.911-10.911-6.5398-15.125,0-21.665,1.0194-1.0194,1.4774-6.4068,1.6774-12.152-9.3181-6.325-3.3165-13.084,0.12794-14.928,0-3.8578,1.9468-7.1887,4.6972-10.173,3.3474-3.6327,7.8849-6.7526,11.551-9.6857-12.414-6.7076-0.95163-12.006-0.27196-15.806,0.78899-7.5928,4.1929-9.1977,14.266-4.093,1.9804,1.0036,4.7649,0.15155,7.6709,0.0395,5.2656-0.20295-3.7563-10.748,7.8191-13.151,5.4772-1.137,0.98092-11.671,3.0132-15.735-1.0086-4.2839-9.097-12.257,5.6587-13.342,2.2844-6.0269,4.3079-12.081,5.1736-15.544,1.4946-7.0891,6.8639-10.745,10.644,0.74443,3.8064,2.187,7.9018,4.6717,11.021,4.6717,15.327-6.8032,10.925,2.1647,21.665,7.2215,0.52178,0,4.9776,2.6735,9.7762,5.5865,4.8463,2.9419,10.042,6.1281,11.888,7.0511,1.2953,0.6389,10.172,0.93516,3.9222,12.038,4.2788,4.5882,3.4258,9.2347,1.494,11.432-0.0656,0.0747,7.2392,1.6673,11.484,6.5982,1.7352,2.0157,2.959,4.5892,2.959,7.8448,0.22852,12.66,10.013,14.259,7.2215,34.302,0,12.865-2.3224,18.567,1.8054,28.886,3.3292,8.3229-9.1957,10.495-1.8054,25.275,8.1894,6.7711-8.0018,22.49-14.443,23.47-8.5019,8.5019-0.002,13.438-5.5196,15.339-1.777,0.61212-5.0078,0.90933-10.729,0.90933-8.2485,9.4705-10.23,17.528-21.665,1.8054-6.0037,16.758-13.378-7.3476-14.224,2.7534-18.838-3.3373-13.814-17.105-10.223-27.289,1.5457-4.3838-1.0808-13.576-5.9152-12.968-0.97396,0.12256,1.2476,2.2393,0.34643,2.3009"/>
     <path id="path39956" d="m863.87,414.47c-7.666-1.8146,9.9098,2.9486,11.735-19.859,0.63203-7.898-0.43871-18.518,0-30.691,0.27189-7.5445,3.6108-27.865,3.6108-34.302,0-12.638-1.8054-25.275-1.8054-37.913v-32.497c0-15.836-3.1381-16.163-7.6729-26.178-2.704-5.2742-9.051-12.213-13.696-17.847-3.6777-4.4615-5.8672-8.1057-7.2918-9.4591-10.212-3.6398-15.823-18.349-13.779-18.518,0.67285-0.0558,1.0224,1.3904,3.3984,5.2038,1.6057,6.4228,10.416,8.6104,17.377,16.248,2.9487,6.3338,13.573,18.087,18.731,23.244,3.6264-11.945,2.9337-16.689,2.9337-26.855v-27.081-28.886c0-10.084,1.7251-16.088,5.4161-23.47,6.1337-12.267,3.3851-3.8431,0,7.2215-2.895,6.6751-3.6493,17.306-1.9687,17.788,0.61079,0.17511,2.7193-4.0958,5.5794-6.9559,7.8518-7.8518,10.953-7.2215,23.47-7.2215,17.922,0-10.056,0.62745-15.571,3.3851-8.9715,4.4857-7.7125,8.8408-12.412,13.54-2.781,2.781-0.90269,28.899-0.90269,33.625,0,12.702-0.60858,19.476,2.2567,26.404,1.5163-0.41608,5.9637,1.1143,10.453-0.39475,8.6184-2.8968,19.21-9.7227,22.269-12.017,4.7155-3.5366,9.997-9.3874,15.12-22.793,2.1226-4.2452,3.5136-7.4033,3.7519-6.7381,0.49766,1.3893-3.8705,10.146-5.1059,15.088-0.0669,0.26765-7.7295,13.597-14.443,18.505-2.7683,2.7683,22.353-6.7597,22.441-1.5849,0.0179,1.0506-5.7351-0.45226-8.2236,2.0362-18.209,1.9609-33.052,12.186-38.59,12.186-8.1557-2.4824-9.3175,6.7816-9.7039,11.284,0.0563,9.2972-0.31635,11.722,5.4161,30.24-2.724,4.8566-0.62885,25.058-0.22567,29.789,0,10.832,3.6108,20.762,3.6108,31.594v32.497,32.497c0,10.832,5.3814,23.657,13.54,32.497-18.063,3.6206-25.594-5.2569-39.718-3.6108z"/>
    </g>
    <g id="g39958" transform="matrix(0.294251,0,0,0.3931022,-100.529,171.41413)" stroke-width="2.47717214">
     <path id="path39960" d="m873.98,240.53c-4.6716,0.29963-1.482,1.5316-1.9381,8.4032-0.48404,7.293,8.1378,18.805,1.9788,38.298-6.7554,0-14.65,1.686-17.025-2.4209-2.3652-4.0907-3.0535-9.4959-3.0535-14.776-11.947,0.00062-19.141-13.828-19.859-19.859-1.0111-2.0222-4.9264-5.7043-9.3276-9.5294-15.325-2.0536-12.733-9.6776-14.142-12.135-10.911-10.911-6.5398-15.125,0-21.665,1.0194-1.0194,1.4774-6.4068,1.6774-12.152-9.3181-6.325-3.3165-13.084,0.12794-14.928,0-3.8578,1.9468-7.1887,4.6972-10.173,3.3474-3.6327,7.8849-6.7526,11.551-9.6857-12.414-6.7076-0.95163-12.006-0.27196-15.806,0.78899-7.5928,4.1929-9.1977,14.266-4.093,1.9804,1.0036,4.7649,0.15155,7.6709,0.0395,5.2656-0.20295-3.7563-10.748,7.8191-13.151,5.4772-1.137,0.98092-11.671,3.0132-15.735-1.0086-4.2839-9.097-12.257,5.6587-13.342,2.2844-6.0269,4.3079-12.081,5.1736-15.544,1.4946-7.0891,6.8639-10.745,10.644,0.74443,3.8064,2.187,7.9018,4.6717,11.021,4.6717,15.327-6.8032,10.925,2.1647,21.665,7.2215,0.52178,0,4.9776,2.6735,9.7762,5.5865,4.8463,2.9419,10.042,6.1281,11.888,7.0511,1.2953,0.6389,10.172,0.93516,3.9222,12.038,4.2788,4.5882,3.4258,9.2347,1.494,11.432-0.0656,0.0747,7.2392,1.6673,11.484,6.5982,1.7352,2.0157,2.959,4.5892,2.959,7.8448,0.22852,12.66,10.013,14.259,7.2215,34.302,0,12.865-2.3224,18.567,1.8054,28.886,3.3292,8.3229-9.1957,10.495-1.8054,25.275,8.1894,6.7711-8.0018,22.49-14.443,23.47-8.5019,8.5019-0.002,13.438-5.5196,15.339-1.777,0.61212-5.0078,0.90933-10.729,0.90933-8.2485,9.4705-10.23,17.528-21.665,1.8054-6.0037,16.758-13.378-7.3476-14.224,2.7534-18.838-3.3373-13.814-17.105-10.223-27.289,1.5457-4.3838-1.0808-13.576-5.9152-12.968-0.97396,0.12256,1.2476,2.2393,0.34643,2.3009"/>
     <path id="path39962" d="m863.87,414.47c-7.666-1.8146,9.9098,2.9486,11.735-19.859,0.63203-7.898-0.43871-18.518,0-30.691,0.27189-7.5445,3.6108-27.865,3.6108-34.302,0-12.638-1.8054-25.275-1.8054-37.913v-32.497c0-15.836-3.1381-16.163-7.6729-26.178-2.704-5.2742-9.051-12.213-13.696-17.847-3.6777-4.4615-5.8672-8.1057-7.2918-9.4591-10.212-3.6398-15.823-18.349-13.779-18.518,0.67285-0.0558,1.0224,1.3904,3.3984,5.2038,1.6057,6.4228,10.416,8.6104,17.377,16.248,2.9487,6.3338,13.573,18.087,18.731,23.244,3.6264-11.945,2.9337-16.689,2.9337-26.855v-27.081-28.886c0-10.084,1.7251-16.088,5.4161-23.47,6.1337-12.267,3.3851-3.8431,0,7.2215-2.895,6.6751-3.6493,17.306-1.9687,17.788,0.61079,0.17511,2.7193-4.0958,5.5794-6.9559,7.8518-7.8518,10.953-7.2215,23.47-7.2215,17.922,0-10.056,0.62745-15.571,3.3851-8.9715,4.4857-7.7125,8.8408-12.412,13.54-2.781,2.781-0.90269,28.899-0.90269,33.625,0,12.702-0.60858,19.476,2.2567,26.404,1.5163-0.41608,5.9637,1.1143,10.453-0.39475,8.6184-2.8968,19.21-9.7227,22.269-12.017,4.7155-3.5366,9.997-9.3874,15.12-22.793,2.1226-4.2452,3.5136-7.4033,3.7519-6.7381,0.49766,1.3893-3.8705,10.146-5.1059,15.088-0.0669,0.26765-7.7295,13.597-14.443,18.505-2.7683,2.7683,22.353-6.7597,22.441-1.5849,0.0179,1.0506-5.7351-0.45226-8.2236,2.0362-18.209,1.9609-33.052,12.186-38.59,12.186-8.1557-2.4824-9.3175,6.7816-9.7039,11.284,0.0563,9.2972-0.31635,11.722,5.4161,30.24-2.724,4.8566-0.62885,25.058-0.22567,29.789,0,10.832,3.6108,20.762,3.6108,31.594v32.497,32.497c0,10.832,5.3814,23.657,13.54,32.497-18.063,3.6206-25.594-5.2569-39.718-3.6108z"/>
    </g>
    <g id="g39970" transform="matrix(0.3152985,0,0,0.4212203,-19.137208,159.59169)" stroke-width="2.31181097">
     <path id="path39972" d="m873.98,240.53c-4.6716,0.29963-1.482,1.5316-1.9381,8.4032-0.48404,7.293,8.1378,18.805,1.9788,38.298-6.7554,0-14.65,1.686-17.025-2.4209-2.3652-4.0907-3.0535-9.4959-3.0535-14.776-11.947,0.00062-19.141-13.828-19.859-19.859-1.0111-2.0222-4.9264-5.7043-9.3276-9.5294-15.325-2.0536-12.733-9.6776-14.142-12.135-10.911-10.911-6.5398-15.125,0-21.665,1.0194-1.0194,1.4774-6.4068,1.6774-12.152-9.3181-6.325-3.3165-13.084,0.12794-14.928,0-3.8578,1.9468-7.1887,4.6972-10.173,3.3474-3.6327,7.8849-6.7526,11.551-9.6857-12.414-6.7076-0.95163-12.006-0.27196-15.806,0.78899-7.5928,4.1929-9.1977,14.266-4.093,1.9804,1.0036,4.7649,0.15155,7.6709,0.0395,5.2656-0.20295-3.7563-10.748,7.8191-13.151,5.4772-1.137,0.98092-11.671,3.0132-15.735-1.0086-4.2839-9.097-12.257,5.6587-13.342,2.2844-6.0269,4.3079-12.081,5.1736-15.544,1.4946-7.0891,6.8639-10.745,10.644,0.74443,3.8064,2.187,7.9018,4.6717,11.021,4.6717,15.327-6.8032,10.925,2.1647,21.665,7.2215,0.52178,0,4.9776,2.6735,9.7762,5.5865,4.8463,2.9419,10.042,6.1281,11.888,7.0511,1.2953,0.6389,10.172,0.93516,3.9222,12.038,4.2788,4.5882,3.4258,9.2347,1.494,11.432-0.0656,0.0747,7.2392,1.6673,11.484,6.5982,1.7352,2.0157,2.959,4.5892,2.959,7.8448,0.22852,12.66,10.013,14.259,7.2215,34.302,0,12.865-2.3224,18.567,1.8054,28.886,3.3292,8.3229-9.1957,10.495-1.8054,25.275,8.1894,6.7711-8.0018,22.49-14.443,23.47-8.5019,8.5019-0.002,13.438-5.5196,15.339-1.777,0.61212-5.0078,0.90933-10.729,0.90933-8.2485,9.4705-10.23,17.528-21.665,1.8054-6.0037,16.758-13.378-7.3476-14.224,2.7534-18.838-3.3373-13.814-17.105-10.223-27.289,1.5457-4.3838-1.0808-13.576-5.9152-12.968-0.97396,0.12256,1.2476,2.2393,0.34643,2.3009"/>
     <path id="path39974" d="m863.87,414.47c-7.666-1.8146,9.9098,2.9486,11.735-19.859,0.63203-7.898-0.43871-18.518,0-30.691,0.27189-7.5445,3.6108-27.865,3.6108-34.302,0-12.638-1.8054-25.275-1.8054-37.913v-32.497c0-15.836-3.1381-16.163-7.6729-26.178-2.704-5.2742-9.051-12.213-13.696-17.847-3.6777-4.4615-5.8672-8.1057-7.2918-9.4591-10.212-3.6398-15.823-18.349-13.779-18.518,0.67285-0.0558,1.0224,1.3904,3.3984,5.2038,1.6057,6.4228,10.416,8.6104,17.377,16.248,2.9487,6.3338,13.573,18.087,18.731,23.244,3.6264-11.945,2.9337-16.689,2.9337-26.855v-27.081-28.886c0-10.084,1.7251-16.088,5.4161-23.47,6.1337-12.267,3.3851-3.8431,0,7.2215-2.895,6.6751-3.6493,17.306-1.9687,17.788,0.61079,0.17511,2.7193-4.0958,5.5794-6.9559,7.8518-7.8518,10.953-7.2215,23.47-7.2215,17.922,0-10.056,0.62745-15.571,3.3851-8.9715,4.4857-7.7125,8.8408-12.412,13.54-2.781,2.781-0.90269,28.899-0.90269,33.625,0,12.702-0.60858,19.476,2.2567,26.404,1.5163-0.41608,5.9637,1.1143,10.453-0.39475,8.6184-2.8968,19.21-9.7227,22.269-12.017,4.7155-3.5366,9.997-9.3874,15.12-22.793,2.1226-4.2452,3.5136-7.4033,3.7519-6.7381,0.49766,1.3893-3.8705,10.146-5.1059,15.088-0.0669,0.26765-7.7295,13.597-14.443,18.505-2.7683,2.7683,22.353-6.7597,22.441-1.5849,0.0179,1.0506-5.7351-0.45226-8.2236,2.0362-18.209,1.9609-33.052,12.186-38.59,12.186-8.1557-2.4824-9.3175,6.7816-9.7039,11.284,0.0563,9.2972-0.31635,11.722,5.4161,30.24-2.724,4.8566-0.62885,25.058-0.22567,29.789,0,10.832,3.6108,20.762,3.6108,31.594v32.497,32.497c0,10.832,5.3814,23.657,13.54,32.497-18.063,3.6206-25.594-5.2569-39.718-3.6108z"/>
    </g>
    <g id="g39982" transform="matrix(0.294251,0,0,0.3931022,-196.23861,171.41413)" stroke-width="2.47717214">
     <path id="path39984" d="m873.98,240.53c-4.6716,0.29963-1.482,1.5316-1.9381,8.4032-0.48404,7.293,8.1378,18.805,1.9788,38.298-6.7554,0-14.65,1.686-17.025-2.4209-2.3652-4.0907-3.0535-9.4959-3.0535-14.776-11.947,0.00062-19.141-13.828-19.859-19.859-1.0111-2.0222-4.9264-5.7043-9.3276-9.5294-15.325-2.0536-12.733-9.6776-14.142-12.135-10.911-10.911-6.5398-15.125,0-21.665,1.0194-1.0194,1.4774-6.4068,1.6774-12.152-9.3181-6.325-3.3165-13.084,0.12794-14.928,0-3.8578,1.9468-7.1887,4.6972-10.173,3.3474-3.6327,7.8849-6.7526,11.551-9.6857-12.414-6.7076-0.95163-12.006-0.27196-15.806,0.78899-7.5928,4.1929-9.1977,14.266-4.093,1.9804,1.0036,4.7649,0.15155,7.6709,0.0395,5.2656-0.20295-3.7563-10.748,7.8191-13.151,5.4772-1.137,0.98092-11.671,3.0132-15.735-1.0086-4.2839-9.097-12.257,5.6587-13.342,2.2844-6.0269,4.3079-12.081,5.1736-15.544,1.4946-7.0891,6.8639-10.745,10.644,0.74443,3.8064,2.187,7.9018,4.6717,11.021,4.6717,15.327-6.8032,10.925,2.1647,21.665,7.2215,0.52178,0,4.9776,2.6735,9.7762,5.5865,4.8463,2.9419,10.042,6.1281,11.888,7.0511,1.2953,0.6389,10.172,0.93516,3.9222,12.038,4.2788,4.5882,3.4258,9.2347,1.494,11.432-0.0656,0.0747,7.2392,1.6673,11.484,6.5982,1.7352,2.0157,2.959,4.5892,2.959,7.8448,0.22852,12.66,10.013,14.259,7.2215,34.302,0,12.865-2.3224,18.567,1.8054,28.886,3.3292,8.3229-9.1957,10.495-1.8054,25.275,8.1894,6.7711-8.0018,22.49-14.443,23.47-8.5019,8.5019-0.002,13.438-5.5196,15.339-1.777,0.61212-5.0078,0.90933-10.729,0.90933-8.2485,9.4705-10.23,17.528-21.665,1.8054-6.0037,16.758-13.378-7.3476-14.224,2.7534-18.838-3.3373-13.814-17.105-10.223-27.289,1.5457-4.3838-1.0808-13.576-5.9152-12.968-0.97396,0.12256,1.2476,2.2393,0.34643,2.3009"/>
     <path id="path39986" d="m863.87,414.47c-7.666-1.8146,9.9098,2.9486,11.735-19.859,0.63203-7.898-0.43871-18.518,0-30.691,0.27189-7.5445,3.6108-27.865,3.6108-34.302,0-12.638-1.8054-25.275-1.8054-37.913v-32.497c0-15.836-3.1381-16.163-7.6729-26.178-2.704-5.2742-9.051-12.213-13.696-17.847-3.6777-4.4615-5.8672-8.1057-7.2918-9.4591-10.212-3.6398-15.823-18.349-13.779-18.518,0.67285-0.0558,1.0224,1.3904,3.3984,5.2038,1.6057,6.4228,10.416,8.6104,17.377,16.248,2.9487,6.3338,13.573,18.087,18.731,23.244,3.6264-11.945,2.9337-16.689,2.9337-26.855v-27.081-28.886c0-10.084,1.7251-16.088,5.4161-23.47,6.1337-12.267,3.3851-3.8431,0,7.2215-2.895,6.6751-3.6493,17.306-1.9687,17.788,0.61079,0.17511,2.7193-4.0958,5.5794-6.9559,7.8518-7.8518,10.953-7.2215,23.47-7.2215,17.922,0-10.056,0.62745-15.571,3.3851-8.9715,4.4857-7.7125,8.8408-12.412,13.54-2.781,2.781-0.90269,28.899-0.90269,33.625,0,12.702-0.60858,19.476,2.2567,26.404,1.5163-0.41608,5.9637,1.1143,10.453-0.39475,8.6184-2.8968,19.21-9.7227,22.269-12.017,4.7155-3.5366,9.997-9.3874,15.12-22.793,2.1226-4.2452,3.5136-7.4033,3.7519-6.7381,0.49766,1.3893-3.8705,10.146-5.1059,15.088-0.0669,0.26765-7.7295,13.597-14.443,18.505-2.7683,2.7683,22.353-6.7597,22.441-1.5849,0.0179,1.0506-5.7351-0.45226-8.2236,2.0362-18.209,1.9609-33.052,12.186-38.59,12.186-8.1557-2.4824-9.3175,6.7816-9.7039,11.284,0.0563,9.2972-0.31635,11.722,5.4161,30.24-2.724,4.8566-0.62885,25.058-0.22567,29.789,0,10.832,3.6108,20.762,3.6108,31.594v32.497,32.497c0,10.832,5.3814,23.657,13.54,32.497-18.063,3.6206-25.594-5.2569-39.718-3.6108z"/>
    </g>
   </g>
  </g>
 </g>
</svg>
